<?xml version="1.0" standalone="no"?>
<!DOCTYPE svg PUBLIC "-//W3C//DTD SVG 20010904//EN"
 "http://www.w3.org/TR/2001/REC-SVG-20010904/DTD/svg10.dtd">
<svg version="1.0" xmlns="http://www.w3.org/2000/svg"
 width="1024.000000pt" height="701.000000pt" viewBox="0 0 1024.000000 701.000000"
 preserveAspectRatio="xMidYMid meet">

<g transform="translate(0.000000,701.000000) scale(0.100000,-0.100000)"
fill="#000000" stroke="none">
<path d="M6025 6980 c-19 -8 -19 -9 2 -9 33 -1 36 -16 7 -50 l-26 -31 34 1
c18 1 25 3 16 6 -15 4 -15 6 0 33 15 26 15 31 2 44 -10 9 -22 11 -35 6z"/>
<path d="M6127 6983 c-4 -3 -6 -27 -6 -52 1 -41 2 -43 8 -16 l8 30 13 -27 c17
-36 25 -35 38 5 l10 32 1 -32 c1 -18 6 -33 11 -33 13 0 13 70 0 90 -7 11 -13
6 -26 -25 l-17 -40 -11 32 c-13 37 -20 46 -29 36z"/>
<path d="M6520 6939 l0 -50 32 3 c25 2 35 9 42 31 12 33 -4 53 -46 61 -27 5
-28 4 -28 -45z m55 -4 c0 -23 -5 -31 -22 -33 -20 -3 -23 1 -23 33 0 32 3 36
23 33 17 -2 22 -10 22 -33z"/>
<path d="M6308 6965 c-3 -3 -2 -20 1 -37 9 -41 29 -49 23 -8 -3 21 0 30 9 30
11 0 11 2 -1 10 -17 11 -24 12 -32 5z"/>
<path d="M7088 6963 l-48 -4 0 -75 0 -74 -670 0 -670 0 0 -470 0 -470 40 0 40
0 0 -220 0 -220 -2235 0 c-1483 0 -2235 3 -2235 10 0 6 8 10 19 10 26 0 44 25
36 50 -5 15 -15 20 -39 20 -33 0 -33 -1 -32 -42 l1 -43 -427 -3 -428 -2 0
-2350 0 -2350 3165 0 3165 0 0 1016 0 1015 33 -3 32 -3 3 -412 c2 -363 0 -413
-13 -413 -13 0 -15 -76 -15 -640 l0 -640 633 0 c347 0 830 -3 1072 -7 l440 -6
245 218 c135 120 250 223 256 229 6 6 101 92 212 191 l202 180 -3 1895 -2
1895 -237 3 -238 2 0 860 0 860 -1127 -2 c-621 -1 -1149 -4 -1175 -5z m1260
-13 c325 0 355 -1 334 -16 -41 -29 -18 -104 32 -104 54 0 89 69 51 100 -8 7
-15 16 -15 21 0 5 141 9 315 9 l315 0 2 -862 3 -863 193 0 c189 0 192 0 167
-18 -47 -35 -25 -107 32 -107 56 0 87 75 43 102 -27 17 -25 24 8 22 l27 -1 3
-126 c1 -70 0 -127 -3 -127 -4 0 -15 5 -27 11 -26 14 -75 -5 -84 -33 -17 -55
29 -93 88 -70 l28 10 0 -1717 0 -1717 -205 -183 c-186 -166 -208 -182 -223
-169 -9 8 -75 65 -145 126 -70 62 -131 112 -135 111 -4 0 -81 -81 -171 -180
l-164 -179 -181 -2 -181 -3 -3 -162 -2 -163 -809 0 -808 0 -6 158 c-4 86 -7
370 -7 630 l0 472 155 0 155 0 0 -160 0 -160 210 0 210 0 1 163 c0 95 4 154 9
142 4 -12 15 -27 24 -34 15 -13 15 -15 -4 -28 -41 -29 -19 -103 32 -103 61 0
89 59 48 100 -15 15 -17 21 -6 27 37 22 37 86 0 100 -14 5 -14 8 6 23 28 21
30 68 4 89 -19 15 -19 17 -2 33 38 38 12 98 -42 98 -28 0 -60 -22 -60 -41 0
-5 -87 -9 -210 -9 l-210 0 -1 73 c0 98 0 258 0 400 l1 117 30 0 30 0 0 -75 0
-75 365 0 365 0 0 115 0 114 -207 3 c-115 2 -211 2 -216 0 -4 -2 -74 -4 -155
-5 l-147 -2 -3 -27 -3 -28 -85 0 -84 0 -1 690 c-1 380 -2 696 -3 703 -1 9 28
13 106 15 l108 3 2 -203 3 -203 183 -3 182 -2 0 -110 0 -110 -195 0 -195 0 0
-130 0 -130 270 0 270 0 0 -70 0 -70 -262 -2 -263 -3 -3 -112 -3 -113 173 -1
c95 -1 179 -1 186 0 22 3 13 -13 -24 -42 -19 -16 -33 -31 -30 -34 3 -3 27 13
53 36 l48 40 158 -2 157 -2 0 118 0 117 -91 0 -91 0 6 31 c3 17 6 49 6 70 l0
39 85 0 85 0 0 130 0 130 -70 0 -70 0 0 110 c0 90 3 110 15 110 12 0 13 -4 3
-25 -21 -47 28 -100 76 -82 29 11 47 52 37 80 l-10 26 72 3 72 3 5 175 c3 96
9 169 13 163 9 -14 55 -17 73 -5 6 4 17 18 24 31 10 20 9 27 -7 50 -24 32 -58
38 -83 16 -19 -17 -19 -14 -22 91 l-3 109 -137 3 -138 3 0 42 c0 38 -10 56
-90 164 -79 106 -90 127 -90 162 l0 41 53 0 52 0 93 104 92 105 0 135 0 136
199 0 c131 0 202 4 206 11 4 6 4 114 0 240 l-8 229 -203 0 -203 0 16 28 c19
34 13 55 -21 77 -23 15 -28 15 -56 2 l-30 -15 0 192 0 193 -22 0 c-147 1 -156
3 -161 23 -5 19 -14 20 -291 20 l-286 0 0 325 0 325 73 0 c55 -1 68 -3 54 -11
-37 -21 -38 -78 -3 -101 34 -23 96 10 96 52 0 11 -9 29 -20 40 l-20 20 62 0
c59 0 61 -1 40 -16 -41 -29 -18 -104 32 -104 59 0 90 72 44 104 -20 14 3 16
267 18 160 2 296 2 303 1 8 -2 174 -3 370 -3z m-1124 -19 c3 -5 0 -14 -8 -20
-10 -8 -16 -8 -25 3 -9 11 -9 15 1 19 20 8 26 8 32 -2z m162 -2 c11 -19 -13
-34 -31 -19 -13 11 -13 15 -3 21 18 12 26 11 34 -2z m1357 4 c4 -3 2 -12 -4
-20 -9 -10 -15 -10 -25 -2 -8 6 -11 15 -8 20 6 11 28 12 37 2z m-1323 -43 c0
-26 -15 -33 -30 -15 -10 12 -10 18 0 30 15 18 30 11 30 -15z m-235 0 c0 -7 -6
-15 -12 -17 -8 -3 -13 4 -13 17 0 13 5 20 13 18 6 -3 12 -11 12 -18z m71 9
c10 -17 -13 -36 -27 -22 -12 12 -4 33 11 33 5 0 12 -5 16 -11z m108 -15 c30
-27 24 -53 -9 -40 -14 5 -15 9 -6 20 10 12 8 13 -8 9 -16 -4 -21 -1 -21 16 0
27 8 26 44 -5z m1341 16 c8 -13 -14 -42 -26 -34 -5 3 -9 14 -9 25 0 20 24 26
35 9z m65 -10 c0 -21 -15 -27 -25 -10 -7 12 2 30 16 30 5 0 9 -9 9 -20z
m-1549 -43 c-5 -5 -17 -7 -26 -3 -14 5 -15 9 -5 21 10 12 16 13 27 4 9 -8 10
-16 4 -22z m1515 1 c-23 -13 -40 0 -25 18 9 11 15 12 26 2 12 -10 12 -13 -1
-20z m-2226 -503 l0 -454 -307 -3 c-170 -2 -350 -2 -400 0 l-93 3 0 454 0 455
400 0 400 0 0 -455z m50 276 c0 -109 -4 -182 -10 -186 -7 -4 -10 58 -10 179 0
117 4 186 10 186 6 0 10 -66 10 -179z m40 -6 c0 -158 -2 -185 -15 -185 -13 0
-15 27 -15 185 0 158 2 185 15 185 13 0 15 -27 15 -185z m48 3 c-3 -155 -5
-183 -18 -183 -13 0 -15 27 -18 170 -1 93 0 175 2 182 3 7 12 13 21 13 13 0
15 -23 13 -182z m52 -4 c0 -171 -1 -185 -17 -182 -16 3 -18 21 -21 186 -2 177
-2 182 18 182 19 0 20 -6 20 -186z m48 4 c-2 -134 -6 -182 -15 -186 -10 -3
-13 38 -13 182 0 160 2 186 15 186 13 0 15 -24 13 -182z m42 -3 c0 -158 -2
-185 -15 -185 -13 0 -15 27 -15 185 0 158 2 185 15 185 13 0 15 -27 15 -185z
m50 0 c0 -158 -2 -185 -15 -185 -13 0 -15 27 -15 185 0 158 2 185 15 185 13 0
15 -27 15 -185z m45 0 c0 -134 -3 -179 -12 -182 -10 -4 -13 37 -13 182 0 145
3 186 13 183 9 -4 12 -49 12 -183z m50 0 c0 -163 -2 -180 -17 -183 -17 -3 -18
11 -18 183 0 172 1 186 18 183 15 -3 17 -20 17 -183z m45 0 c0 -158 -2 -185
-15 -185 -13 0 -15 27 -15 185 0 158 2 185 15 185 13 0 15 -27 15 -185z m45 0
c0 -134 -3 -179 -12 -182 -10 -4 -13 37 -13 182 0 145 3 186 13 183 9 -4 12
-49 12 -183z m15 -290 l0 -95 -255 0 -255 0 0 95 0 95 255 0 255 0 0 -95z
m570 -50 c0 -12 -41 -15 -275 -17 -256 -3 -275 -2 -275 15 0 16 20 17 275 17
235 0 275 -2 275 -15z m0 -85 c0 -47 -1 -50 -19 -40 -31 16 -58 12 -81 -12
-23 -25 -20 -63 7 -83 14 -11 14 -14 -5 -33 -28 -28 -28 -67 0 -86 29 -21 57
-20 80 1 18 16 18 10 16 -198 l-3 -214 -87 -3 -87 -3 -3 -97 -3 -97 -50 -3
c-27 -2 -110 -1 -182 3 l-133 7 0 454 0 454 275 0 275 0 0 -50z m189 -182 l-4
-233 250 -5 250 -5 3 -225 2 -225 -332 3 c-183 2 -334 5 -336 7 -2 2 -4 529
-2 848 l0 67 86 0 86 0 -3 -232z m-1239 77 c0 -113 -2 -135 -15 -135 -13 0
-15 21 -15 128 0 71 3 132 7 135 19 19 23 -5 23 -128z m48 -3 c2 -113 0 -132
-13 -132 -13 0 -15 21 -15 136 0 104 3 135 13 132 8 -3 13 -42 15 -136z m50 0
c2 -127 2 -132 -18 -132 -19 0 -20 6 -20 136 0 124 2 135 18 132 15 -3 17 -19
20 -136z m52 3 c0 -128 -1 -135 -20 -135 -19 0 -20 7 -20 135 0 128 1 135 20
135 19 0 20 -7 20 -135z m45 87 c-3 -192 -5 -222 -20 -222 -13 0 -15 21 -15
128 0 71 3 132 7 136 16 15 28 -3 28 -42z m45 -87 c0 -113 -2 -135 -15 -135
-13 0 -15 22 -15 135 0 113 2 135 15 135 13 0 15 -22 15 -135z m50 0 c0 -113
-2 -135 -15 -135 -13 0 -15 22 -15 135 0 113 2 135 15 135 13 0 15 -22 15
-135z m40 0 c0 -83 -4 -135 -10 -135 -6 0 -10 52 -10 135 0 83 4 135 10 135 6
0 10 -52 10 -135z m50 0 c0 -113 -2 -135 -15 -135 -13 0 -15 22 -15 135 0 113
2 135 15 135 13 0 15 -22 15 -135z m50 0 c0 -113 -2 -135 -15 -135 -13 0 -15
22 -15 135 0 113 2 135 15 135 13 0 15 -22 15 -135z m40 0 c0 -83 -4 -135 -10
-135 -6 0 -10 52 -10 135 0 83 4 135 10 135 6 0 10 -52 10 -135z m543 58 c4
-3 2 -12 -4 -20 -9 -10 -15 -10 -25 -2 -8 6 -11 15 -8 20 6 11 28 12 37 2z
m28 -56 c-18 -18 -38 8 -21 28 12 15 14 15 23 0 6 -11 5 -21 -2 -28z m-66 13
c0 -7 -6 -15 -12 -17 -8 -3 -13 4 -13 17 0 13 5 20 13 18 6 -3 12 -11 12 -18z
m34 -41 c-7 -4 -18 -5 -26 -2 -10 4 -11 9 -2 19 9 11 15 12 26 3 11 -9 11 -14
2 -20z m41 -21 c0 -25 -3 -29 -12 -20 -14 14 -32 16 -24 3 3 -5 0 -14 -8 -20
-10 -8 -16 -8 -26 4 -10 12 -8 16 12 24 13 5 30 16 37 25 19 22 21 20 21 -16z
m-75 -48 c4 -6 1 -18 -6 -26 -11 -14 -13 -14 -21 0 -15 26 12 51 27 26z m65
-10 c0 -21 -15 -27 -25 -10 -7 12 2 30 16 30 5 0 9 -9 9 -20z m-34 -42 c-23
-13 -40 0 -25 18 9 11 15 12 26 2 12 -10 12 -13 -1 -20z m-522 -39 c3 -17 6
-152 6 -299 0 -259 -1 -268 -20 -273 -14 -4 -20 -14 -20 -34 0 -21 -28 -60
-115 -163 l-115 -135 -2 -720 c-3 -713 -3 -711 -6 218 l-2 937 -334 0 -335 0
-3 218 c-2 119 -3 218 -3 219 0 0 107 3 238 5 212 3 237 1 237 -13 0 -9 -9
-24 -20 -34 -11 -10 -20 -22 -20 -27 0 -11 48 -10 55 2 3 6 -1 10 -10 10 -14
0 -14 2 1 25 21 32 12 55 -21 55 -18 0 -25 5 -25 20 0 19 7 20 254 20 l254 0
6 -31z m846 -28 c0 -15 -16 -22 -34 -15 -25 9 -19 24 9 24 14 0 25 -4 25 -9z
m-2050 -227 l0 -215 -22 3 c-23 3 -23 4 -26 216 l-2 212 25 0 25 0 0 -216z
m190 201 c0 -12 -16 -15 -84 -15 -65 0 -85 3 -90 15 -4 13 9 15 84 15 73 0 90
-3 90 -15z m50 -200 c0 -208 -1 -215 -20 -215 -19 0 -20 7 -20 215 0 208 1
215 20 215 19 0 20 -7 20 -215z m1764 206 c8 -12 -3 -41 -15 -41 -5 0 -9 11
-9 25 0 25 14 34 24 16z m66 -17 c0 -22 -2 -25 -15 -14 -12 10 -13 16 -4 26
16 20 19 18 19 -12z m-1885 -24 c4 -6 -25 -10 -79 -10 -51 0 -86 4 -86 10 0 6
33 10 79 10 44 0 83 -4 86 -10z m1863 -7 c2 -8 -6 -13 -22 -13 -25 0 -33 10
-19 24 10 10 36 3 41 -11z m-63 -13 c3 -5 1 -10 -4 -10 -6 0 -11 5 -11 10 0 6
2 10 4 10 3 0 8 -4 11 -10z m-1795 -20 c0 -6 -35 -10 -85 -10 -50 0 -85 4 -85
10 0 6 35 10 85 10 50 0 85 -4 85 -10z m-7 -35 c-2 -5 -39 -11 -83 -13 -67 -2
-80 0 -80 13 0 13 13 15 83 13 48 -2 81 -7 80 -13z m7 -35 c0 -6 -35 -10 -85
-10 -50 0 -85 4 -85 10 0 6 35 10 85 10 50 0 85 -4 85 -10z m-5 -40 c-3 -5
-42 -10 -86 -10 -46 0 -79 4 -79 10 0 6 35 10 86 10 54 0 83 -4 79 -10z m5
-30 c0 -6 -35 -10 -85 -10 -50 0 -85 4 -85 10 0 6 35 10 85 10 50 0 85 -4 85
-10z m0 -40 c0 -6 -35 -10 -85 -10 -50 0 -85 4 -85 10 0 6 35 10 85 10 50 0
85 -4 85 -10z m-7 -35 c-2 -5 -39 -11 -83 -13 -67 -2 -80 0 -80 13 0 13 13 15
83 13 48 -2 81 -7 80 -13z m7 -35 c0 -6 -35 -10 -85 -10 -50 0 -85 4 -85 10 0
6 35 10 85 10 50 0 85 -4 85 -10z m-4680 -29 c0 -11 -5 -23 -11 -27 -15 -9
-33 12 -26 30 9 23 37 20 37 -3z m6180 -76 l0 -95 -45 0 -45 0 0 95 0 95 45 0
45 0 0 -95z m80 0 l0 -95 -35 0 -35 0 0 95 0 95 35 0 35 0 0 -95z m-1580 65
c0 -6 -35 -10 -84 -10 -47 0 -88 5 -91 10 -4 6 27 10 84 10 54 0 91 -4 91 -10z
m-7 -35 c-2 -5 -39 -11 -83 -13 -67 -2 -80 0 -80 13 0 13 13 15 83 13 48 -2
81 -7 80 -13z m-245 -42 c-3 -17 -137 -18 -2641 -18 l-2637 0 0 -2302 0 -2303
3105 0 3105 0 0 2303 0 2302 -288 -2 c-158 -1 -297 0 -309 3 -13 4 -20 11 -16
20 4 12 61 14 334 14 l329 0 0 -2335 0 -2335 -3155 0 -3155 0 0 2335 0 2335
2666 0 c2533 0 2665 -1 2662 -17z m62 -3 c0 -21 -8 -24 -34 -14 -25 10 -19 34
9 34 18 0 25 -5 25 -20z m188 3 c-3 -15 -17 -19 -86 -21 -77 -3 -82 -2 -82 17
0 20 6 21 86 21 76 0 85 -2 82 -17z m52 -3 c0 -13 -7 -20 -20 -20 -13 0 -20 7
-20 20 0 13 7 20 20 20 13 0 20 -7 20 -20z m-5533 -48 c-53 -58 28 -137 83
-82 24 24 26 57 3 82 -15 17 -14 18 30 18 l47 0 -20 -20 c-24 -24 -26 -63 -4
-84 22 -22 67 -20 89 4 l18 20 14 -20 c18 -26 61 -26 88 0 l22 20 18 -20 c22
-24 52 -26 83 -4 26 18 29 60 5 86 -15 17 -13 18 75 18 l92 0 0 -235 0 -235
-336 2 -335 3 0 110 c0 61 0 114 0 118 1 5 8 1 17 -7 22 -22 54 -20 81 6 28
26 29 52 3 78 -24 24 -63 26 -84 5 -8 -8 -16 -15 -18 -15 -3 0 -3 146 1 163 0
4 11 7 23 7 20 0 20 -1 5 -18z m274 9 c-7 -5 -16 -13 -20 -19 -4 -7 -15 -4
-31 8 l-25 20 45 0 c29 0 40 -3 31 -9z m112 -15 c-10 -13 -18 -23 -18 -23 0 1
-9 12 -19 25 l-19 22 37 0 37 0 -18 -24z m775 -13 l-3 -38 -252 -1 -253 0 0
38 0 38 256 0 255 0 -3 -37z m872 7 c0 -16 -4 -30 -10 -30 -5 0 -10 14 -10 30
0 17 5 30 10 30 6 0 10 -13 10 -30z m210 0 l0 -30 -100 0 c-98 0 -100 0 -100
23 0 13 3 27 7 30 3 4 48 7 100 7 l93 0 0 -30z m750 0 l0 -30 -370 0 -370 0 0
30 0 30 370 0 370 0 0 -30z m500 -180 l0 -210 -235 0 c-129 0 -238 0 -242 0
-5 0 -9 94 -11 210 l-2 210 245 0 245 0 0 -210z m47 -27 l-2 -238 -170 -3
c-220 -3 -335 5 -335 24 0 12 39 14 234 14 204 0 235 2 240 16 3 9 6 108 6
220 0 173 2 204 15 204 12 0 14 -34 12 -237z m1413 132 l0 -105 -404 0 c-314
0 -405 3 -408 13 -2 6 -3 28 -2 47 1 19 3 61 3 93 l1 57 405 0 405 0 0 -105z
m1200 -2185 l0 -2290 -1582 2 -1583 3 0 215 0 215 275 0 275 0 3 -88 3 -87
297 2 297 3 1 270 c0 149 1 276 2 283 2 9 90 12 406 12 l405 0 0 -117 c0 -65
0 -139 1 -166 l0 -47 203 2 202 3 2 415 c2 228 3 472 3 542 l0 127 68 3 67 3
2 775 c1 426 2 924 2 1107 l1 331 88 -1 87 -2 0 240 0 240 -72 3 -71 3 4 102
c2 56 4 121 4 145 l0 42 305 0 305 0 0 -2290z m-6096 2271 c3 -5 0 -14 -8 -20
-10 -8 -16 -8 -25 3 -9 11 -9 15 1 19 20 8 26 8 32 -2z m269 2 c4 -3 2 -12 -4
-20 -9 -10 -15 -10 -25 -2 -8 6 -11 15 -8 20 6 11 28 12 37 2z m123 -4 c11
-19 -13 -34 -31 -19 -13 11 -13 15 -3 21 18 12 26 11 34 -2z m1553 -159 c0
-97 -4 -170 -10 -170 -5 0 -9 -9 -9 -19 0 -26 -15 -34 -29 -17 -10 11 -7 18
11 30 19 14 21 18 8 26 -56 36 -125 -25 -90 -80 7 -12 12 -12 29 4 21 19 21
19 42 0 16 -14 22 -15 28 -5 6 10 10 10 16 1 4 -6 4 -14 1 -18 -10 -9 -36 -11
-36 -3 0 5 -13 8 -30 9 -16 0 -30 -3 -30 -7 0 -4 -20 -7 -45 -7 -48 1 -54 6
-30 26 18 15 20 61 3 78 -9 9 -5 12 20 12 61 0 80 71 28 106 -50 32 -116 -30
-83 -79 15 -23 15 -24 -8 -19 -28 5 -65 -29 -65 -60 0 -12 9 -31 19 -42 l20
-21 -295 0 -294 0 0 213 0 212 415 0 415 0 -1 -170z m2121 141 l0 -29 -31 15
c-29 14 -33 14 -57 -4 -51 -38 -33 -103 28 -103 16 0 36 7 44 16 15 14 16 -6
16 -216 0 -225 1 -232 20 -237 13 -3 20 -12 18 -22 -3 -13 -22 -16 -118 -19
-76 -2 -117 -7 -122 -15 -9 -14 -11 -308 -2 -331 5 -14 32 -16 190 -16 l184 0
0 100 0 100 105 0 105 0 0 -135 0 -135 99 0 100 0 -3 -36 c-2 -19 -6 -36 -7
-38 -2 -1 -20 -13 -39 -27 -54 -39 -68 -46 -47 -22 36 41 8 93 -49 93 -32 0
-64 -28 -64 -56 0 -24 37 -56 63 -56 15 0 27 -2 27 -4 0 -2 -20 -17 -45 -34
-45 -31 -45 -31 -34 -6 10 20 9 30 -5 51 -24 36 -69 38 -98 3 -24 -27 -23 -44
6 -73 16 -16 31 -22 47 -19 24 5 24 5 4 -11 -45 -37 -55 -38 -55 -6 0 56 -72
78 -107 32 -30 -39 -5 -84 51 -94 25 -4 50 9 160 86 72 50 148 103 168 119
l37 29 -2 272 -2 272 -282 3 -283 2 0 44 0 43 403 -1 402 -1 0 -1405 0 -1405
-402 -3 -403 -2 0 30 0 30 129 0 c74 0 132 4 136 10 3 5 28 87 55 182 l50 173
0 340 0 340 -140 135 -140 135 -6 230 -7 230 72 49 c39 27 70 51 67 53 -2 3
-36 -17 -75 -44 l-71 -48 3 -236 2 -236 59 -55 58 -56 -46 -82 c-25 -45 -46
-88 -46 -95 0 -7 35 -43 78 -79 73 -63 79 -66 130 -66 l52 0 0 -245 0 -245
-77 -1 c-98 -1 -287 -9 -290 -13 -2 -1 -6 -69 -9 -149 l-6 -147 147 0 147 0
-7 -27 c-9 -38 -21 -44 -90 -41 -33 1 -90 1 -127 0 l-68 -2 0 -215 0 -215
-100 0 -100 0 0 -150 0 -150 100 0 100 0 0 -41 c0 -37 -1 -39 -16 -25 -20 21
-68 20 -89 0 -10 -10 -15 -29 -13 -48 5 -54 79 -69 110 -22 4 6 8 -11 8 -38 0
-47 -1 -48 -18 -33 -40 36 -102 9 -102 -44 0 -50 64 -76 102 -42 17 15 18 15
18 -10 l0 -27 -285 0 -285 0 0 440 c0 242 3 440 6 440 3 0 14 -5 24 -10 49
-26 106 39 75 86 -17 27 -72 33 -93 12 -9 -9 -12 13 -12 102 l0 115 72 0 73 0
3 188 2 187 60 0 60 0 0 265 0 265 -85 0 c-77 0 -102 8 -75 25 16 10 12 57 -7
77 -20 22 -61 23 -85 1 -17 -16 -18 -10 -18 163 l0 180 108 -1 107 0 3 233 2
232 -57 2 c-32 0 -69 0 -83 -1 -24 -1 -24 -1 -5 10 49 28 58 66 23 99 -26 24
-55 26 -80 3 -17 -16 -18 3 -18 585 l0 602 285 0 285 0 0 -29z m950 9 c-26
-26 -25 -46 5 -75 29 -30 45 -31 78 -5 22 17 26 18 37 5 19 -23 76 -19 94 7
20 29 20 47 -1 70 -16 17 -12 18 110 18 l126 0 3 -147 3 -148 68 -3 67 -3 0
-34 c0 -32 -2 -34 -22 -26 -42 15 -88 -16 -88 -58 0 -23 -1 -24 -16 -9 -15 15
-15 18 0 39 23 33 20 54 -10 78 -34 27 -50 26 -79 -4 -31 -30 -31 -49 -2 -79
l23 -23 -20 -27 c-19 -25 -19 -29 -5 -54 26 -47 102 -39 115 13 7 28 8 29 34
15 12 -7 28 -7 44 0 l26 10 0 -148 0 -148 -87 1 -88 0 -3 -332 -2 -333 -70 0
-70 0 0 -180 0 -180 70 0 70 0 0 -200 0 -199 -77 -3 -78 -3 0 -265 0 -265 32
-3 33 -3 -21 -22 c-53 -57 32 -130 89 -77 l22 21 0 -80 c0 -90 -1 -91 -86 -91
l-54 0 0 -310 0 -310 -85 0 -85 0 0 -230 0 -230 -61 0 c-55 0 -59 1 -45 16 52
51 -31 127 -86 77 -17 -15 -18 -12 -18 102 0 116 0 118 19 101 26 -24 60 -17
85 17 19 26 19 30 5 55 -16 30 -56 40 -89 22 -20 -11 -20 -9 -20 170 l0 180
75 0 75 0 0 290 0 290 -75 0 -75 0 0 380 0 380 110 0 110 0 0 670 0 670 -110
0 -110 0 0 315 0 315 65 0 65 0 -20 -20z m120 5 c-10 -12 -16 -13 -26 -4 -20
16 -18 19 12 19 22 0 25 -2 14 -15z m-4990 -4 c0 -19 -22 -23 -38 -7 -15 15
-14 16 11 16 15 0 27 -4 27 -9z m4940 0 c0 -6 -4 -12 -9 -15 -13 -8 -42 4 -35
15 7 12 44 12 44 0z m120 0 c0 -19 -22 -23 -38 -7 -15 15 -14 16 11 16 15 0
27 -4 27 -9z m-5245 -31 c0 -7 -6 -15 -12 -17 -8 -3 -13 4 -13 17 0 13 5 20
13 18 6 -3 12 -11 12 -18z m71 9 c10 -17 -13 -36 -27 -22 -12 12 -4 33 11 33
5 0 12 -5 16 -11z m73 -25 c-9 -12 -7 -14 11 -12 13 2 25 -3 27 -9 7 -20 -32
-15 -52 7 -22 24 -13 59 10 40 12 -10 13 -16 4 -26z m71 18 c0 -26 -11 -34
-27 -21 -10 9 -10 15 -2 25 16 19 29 17 29 -4z m55 8 c4 -6 1 -18 -6 -26 -11
-14 -13 -14 -21 0 -15 26 12 51 27 26z m65 -10 c0 -11 -4 -20 -9 -20 -14 0
-23 18 -16 30 10 17 25 11 25 -10z m55 0 c0 -7 -6 -15 -12 -17 -8 -3 -13 4
-13 17 0 13 5 20 13 18 6 -3 12 -11 12 -18z m75 0 c0 -11 -6 -20 -14 -20 -18
0 -29 16 -21 30 11 18 35 11 35 -10z m4618 -8 c-5 -27 -28 -26 -28 2 0 19 4
24 15 19 9 -3 15 -12 13 -21z m67 -13 c-5 -7 -11 -6 -21 2 -11 9 -12 15 -2 26
10 12 13 12 20 -1 5 -9 6 -21 3 -27z m52 30 c9 -9 8 -15 -2 -25 -19 -20 -25
-17 -25 11 0 27 9 32 27 14z m68 1 c3 -5 2 -17 -3 -26 -8 -14 -10 -14 -21 0
-13 15 -8 36 9 36 5 0 12 -4 15 -10z m-1207 -26 c-9 -9 -21 -13 -27 -10 -20
13 -11 26 16 26 25 0 26 -1 11 -16z m2412 12 c0 -3 -4 -8 -10 -11 -5 -3 -10
-1 -10 4 0 6 5 11 10 11 6 0 10 -2 10 -4z m388 -134 l3 -132 -203 2 -203 3 -3
106 c-2 95 0 108 19 132 l21 27 181 -2 182 -3 3 -133z m27 129 c3 -5 1 -12 -5
-16 -5 -3 -10 1 -10 9 0 18 6 21 15 7z m73 -3 c-4 -12 -14 -13 -48 -9 -25 3
-7 21 21 21 20 0 29 -4 27 -12z m76 3 c3 -5 -8 -11 -25 -13 -27 -4 -45 3 -34
13 8 9 54 8 59 0z m-7003 -34 c-5 -5 -17 -7 -26 -3 -14 5 -15 9 -5 21 10 12
16 13 27 4 9 -8 10 -16 4 -22z m270 0 c-5 -5 -17 -7 -26 -3 -14 5 -15 9 -5 21
10 12 16 13 27 4 9 -8 10 -16 4 -22z m128 19 c10 -11 8 -16 -8 -21 -29 -9 -45
3 -30 21 15 18 23 18 38 0z m6901 -116 l0 -130 -135 0 -135 0 0 130 0 130 135
0 135 0 0 -130z m-5320 58 c0 -34 -2 -59 -4 -57 -8 8 -12 119 -4 119 4 0 8
-28 8 -62z m40 2 c0 -33 -4 -60 -10 -60 -5 0 -10 20 -10 44 0 24 -3 51 -6 60
-4 11 -1 16 10 16 13 0 16 -12 16 -60z m50 2 c0 -63 -4 -74 -26 -65 -10 4 -14
23 -14 64 0 52 2 59 20 59 18 0 20 -7 20 -58z m50 -7 c0 -58 -2 -65 -20 -65
-18 0 -20 7 -20 65 0 58 2 65 20 65 18 0 20 -7 20 -65z m50 0 c0 -58 -2 -65
-20 -65 -18 0 -20 7 -20 65 0 58 2 65 20 65 18 0 20 -7 20 -65z m43 -46 c-1
-61 -4 -114 -7 -117 -3 -3 -6 47 -6 111 0 65 3 117 8 117 4 0 6 -50 5 -111z
m57 -2 c0 -63 -3 -116 -6 -120 -3 -3 -12 -3 -20 0 -11 4 -14 31 -14 119 0 107
1 114 20 114 19 0 20 -7 20 -113z m49 -1 c-1 -111 -5 -126 -35 -126 -2 0 -4
54 -4 120 0 114 1 120 20 120 20 0 21 -5 19 -114z m41 -6 c0 -102 -2 -119 -15
-114 -12 5 -15 28 -15 120 0 95 3 114 15 114 12 0 15 -20 15 -120z m48 3 c-2
-82 -7 -118 -15 -121 -10 -3 -13 25 -13 117 0 102 2 121 15 121 13 0 15 -17
13 -117z m50 18 c4 -110 -2 -143 -23 -135 -12 5 -15 28 -15 121 0 104 2 114
18 111 14 -3 17 -17 20 -97z m42 -15 c0 -92 -3 -115 -15 -120 -13 -5 -15 12
-15 114 0 100 3 120 15 120 12 0 15 -19 15 -114z m50 -1 c0 -108 -1 -115 -20
-115 -19 0 -20 7 -20 115 0 108 1 115 20 115 19 0 20 -7 20 -115z m50 1 c0
-88 -3 -115 -14 -119 -8 -3 -17 -3 -20 0 -3 4 -6 57 -6 120 0 106 1 113 20
113 19 0 20 -7 20 -114z m48 -3 c-2 -97 -6 -118 -18 -118 -12 0 -16 21 -18
118 -3 112 -2 117 18 117 20 0 21 -5 18 -117z m50 0 c-2 -97 -6 -118 -18 -118
-12 0 -16 21 -18 118 -3 112 -2 117 18 117 20 0 21 -5 18 -117z m42 2 c0 -96
-3 -115 -15 -115 -12 0 -15 19 -15 115 0 96 3 115 15 115 12 0 15 -19 15 -115z
m40 -6 c0 -92 -3 -120 -12 -117 -9 3 -14 39 -16 121 -2 100 0 117 13 117 13 0
15 -19 15 -121z m53 4 c-2 -97 -5 -117 -18 -119 -13 -2 -15 15 -15 117 0 107
2 119 18 119 15 0 17 -11 15 -117z m47 2 c0 -96 -3 -115 -15 -115 -12 0 -15
19 -15 115 0 96 3 115 15 115 12 0 15 -19 15 -115z m50 0 c0 -108 -1 -115 -20
-115 -19 0 -20 7 -20 115 0 108 1 115 20 115 19 0 20 -7 20 -115z m1059 78
c-15 -18 -34 -1 -25 22 5 14 9 15 21 5 12 -10 13 -16 4 -27z m71 19 c0 -26
-11 -34 -27 -21 -10 9 -10 15 -2 25 16 19 29 17 29 -4z m1028 0 c2 -7 -7 -12
-23 -12 -24 0 -26 2 -15 15 14 17 31 16 38 -3z m120 1 c2 -8 -6 -13 -22 -13
-25 0 -33 10 -19 24 10 10 36 3 41 -11z m-4578 -103 c0 -67 -4 -110 -10 -110
-6 0 -10 43 -10 110 0 67 4 110 10 110 6 0 10 -43 10 -110z m50 -1 c0 -84 -3
-110 -12 -107 -9 3 -14 37 -16 111 -2 91 0 107 13 107 13 0 15 -18 15 -111z
m50 0 c0 -100 -2 -110 -17 -107 -16 3 -18 17 -20 111 -1 99 0 107 18 107 18 0
19 -8 19 -111z m50 0 c0 -100 -2 -110 -17 -107 -16 3 -18 18 -21 111 -3 102
-2 107 18 107 19 0 20 -6 20 -111z m48 4 c-2 -88 -6 -108 -18 -108 -12 0 -16
20 -18 108 -3 102 -2 107 18 107 20 0 21 -5 18 -107z m42 -3 c0 -91 -3 -110
-15 -110 -12 0 -15 19 -15 110 0 91 3 110 15 110 12 0 15 -19 15 -110z m48 3
c-2 -74 -7 -108 -15 -111 -10 -3 -13 23 -13 107 0 93 2 111 15 111 13 0 15
-16 13 -107z m50 0 c-2 -88 -6 -108 -18 -108 -12 0 -16 20 -18 108 -3 102 -2
107 18 107 20 0 21 -5 18 -107z m44 -3 c-3 -88 -6 -110 -18 -110 -11 0 -14 21
-14 110 0 98 2 110 18 110 15 0 17 -11 14 -110z m48 0 c0 -91 -3 -110 -15
-110 -12 0 -15 19 -15 110 0 91 3 110 15 110 12 0 15 -19 15 -110z m40 6 c0
-59 -4 -108 -10 -111 -6 -4 -10 33 -10 104 0 67 4 111 10 111 6 0 10 -41 10
-104z m5760 -10 c0 -59 -4 -108 -10 -111 -6 -4 -10 33 -10 104 0 67 4 111 10
111 6 0 10 -41 10 -104z m70 -7 l0 -110 -27 3 -28 3 -3 108 -3 107 31 0 30 0
0 -111z m78 4 l-3 -108 -30 0 -30 0 -3 108 -3 107 36 0 36 0 -3 -107z m-2980
69 c2 -7 -6 -12 -17 -12 -21 0 -27 11 -14 24 9 9 26 2 31 -12z m2382 -412 l0
-420 -80 0 -80 0 0 -110 0 -110 80 0 80 0 0 -305 0 -305 -25 12 c-18 8 -32 8
-49 0 -21 -9 -23 -8 -23 14 0 13 -6 31 -13 39 -17 20 -69 19 -92 -2 -17 -15
-18 -14 -18 26 l0 42 31 -23 c28 -21 32 -21 56 -8 41 24 51 46 33 78 -22 38
-81 44 -104 10 -15 -21 -16 25 -16 602 l1 625 47 57 c112 134 166 198 169 198
2 0 3 -189 3 -420z m-6417 393 c4 -3 2 -12 -4 -20 -9 -10 -15 -10 -25 -2 -8 6
-11 15 -8 20 6 11 28 12 37 2z m9205 -2 c10 -6 10 -10 -3 -21 -12 -10 -18 -10
-30 0 -13 11 -13 15 -3 21 7 5 15 9 18 9 3 0 11 -4 18 -9z m-9182 -59 c-4 -3
-11 -1 -18 6 -8 8 -8 15 3 28 13 16 14 16 17 -5 2 -13 1 -25 -2 -29z m-61 18
c0 -7 -6 -15 -12 -17 -8 -3 -13 4 -13 17 0 13 5 20 13 18 6 -3 12 -11 12 -18z
m9204 7 c8 -10 7 -17 -1 -25 -9 -9 -9 -12 -1 -12 7 0 15 5 18 10 5 8 12 7 23
-2 15 -12 16 -11 3 5 -13 16 -13 20 0 28 23 14 31 11 27 -13 -2 -12 -15 -29
-30 -37 -24 -14 -28 -14 -47 3 -21 19 -29 56 -12 56 5 0 13 -6 20 -13z m-9170
-48 c-7 -4 -18 -5 -26 -2 -10 4 -11 9 -2 19 9 11 15 12 26 3 11 -9 11 -14 2
-20z m1829 9 c-3 -7 -13 -13 -23 -13 -10 0 -20 6 -22 13 -3 7 5 12 22 12 17 0
25 -5 23 -12z m162 -33 c0 -25 -3 -45 -7 -45 -7 0 -8 15 -4 78 1 6 3 12 6 12
3 0 5 -20 5 -45z m40 0 c0 -25 -4 -45 -10 -45 -5 0 -10 20 -10 45 0 25 5 45
10 45 6 0 10 -20 10 -45z m48 -2 c-2 -35 -7 -48 -18 -48 -11 0 -16 13 -18 48
-3 42 -1 47 18 47 19 0 21 -5 18 -47z m52 4 c0 -48 -5 -58 -26 -50 -9 3 -14
21 -14 49 0 37 3 44 20 44 17 0 20 -7 20 -43z m50 -1 c0 -28 -5 -46 -14 -49
-21 -8 -26 2 -26 50 0 36 3 43 20 43 17 0 20 -7 20 -44z m1960 -91 c0 -113 -2
-135 -15 -135 -13 0 -15 22 -15 135 0 113 2 135 15 135 13 0 15 -22 15 -135z
m48 -3 c2 -113 0 -132 -13 -132 -13 0 -15 21 -15 136 0 104 3 135 13 132 8 -3
13 -42 15 -136z m52 3 c0 -128 -1 -135 -20 -135 -19 0 -20 7 -20 135 0 128 1
135 20 135 19 0 20 -7 20 -135z m48 -3 c2 -124 1 -132 -17 -132 -17 0 -19 9
-19 127 -1 131 2 147 21 140 8 -2 13 -47 15 -135z m42 3 c0 -113 -2 -135 -15
-135 -13 0 -15 21 -15 128 0 71 3 132 7 135 19 19 23 -5 23 -128z m50 0 c0
-113 -2 -135 -15 -135 -13 0 -15 22 -15 135 0 113 2 135 15 135 13 0 15 -22
15 -135z m48 -3 c2 -113 0 -132 -13 -132 -13 0 -15 21 -15 136 0 104 3 135 13
132 8 -3 13 -42 15 -136z m42 3 c0 -113 -2 -135 -15 -135 -13 0 -15 21 -15
128 0 71 3 132 7 135 19 19 23 -5 23 -128z m50 0 c0 -113 -2 -135 -15 -135
-13 0 -15 22 -15 135 0 113 2 135 15 135 13 0 15 -22 15 -135z m50 0 c0 -113
-2 -135 -15 -135 -13 0 -15 22 -15 135 0 113 2 135 15 135 13 0 15 -22 15
-135z m50 0 c0 -113 -2 -135 -15 -135 -13 0 -15 22 -15 135 0 113 2 135 15
135 13 0 15 -22 15 -135z m50 0 c0 -111 -3 -135 -14 -135 -12 0 -15 23 -18
113 -4 134 -1 157 18 157 11 0 14 -25 14 -135z m40 0 c0 -113 -2 -135 -15
-135 -13 0 -15 21 -15 128 0 71 3 132 7 135 19 19 23 -5 23 -128z m48 -3 c2
-113 0 -132 -13 -132 -13 0 -15 21 -15 136 0 104 3 135 13 132 8 -3 13 -42 15
-136z m52 3 c0 -128 -1 -135 -20 -135 -19 0 -20 7 -20 128 0 130 2 142 27 142
10 0 13 -29 13 -135z m40 0 c0 -113 -2 -135 -15 -135 -13 0 -15 21 -15 128 0
71 3 132 7 135 19 19 23 -5 23 -128z m48 -3 c2 -113 0 -132 -13 -132 -13 0
-15 21 -15 136 0 104 3 135 13 132 8 -3 13 -42 15 -136z m-3112 107 c3 -6 -1
-18 -10 -27 -15 -15 -16 -14 -16 11 0 27 13 36 26 16z m64 -16 c0 -25 -1 -26
-16 -11 -9 9 -13 21 -10 27 13 20 26 11 26 -16z m-20 -34 c0 -5 -11 -9 -25 -9
-27 0 -32 9 -13 28 12 12 38 -1 38 -19z m-710 -84 c0 -58 2 -65 20 -65 17 0
20 -7 20 -40 l0 -40 258 2 257 3 3 36 3 35 264 -4 265 -5 0 67 0 66 370 0 370
0 0 -55 c0 -42 3 -55 15 -55 8 0 15 -9 15 -20 0 -16 7 -20 35 -20 l35 0 0
-102 0 -103 -127 0 -128 0 -3 -357 -2 -358 -100 0 -100 0 0 -170 0 -170 100 0
100 0 0 -220 0 -220 -95 0 -96 0 3 -132 3 -133 93 0 92 0 0 -227 0 -228 -90 0
-90 0 0 -260 0 -260 90 0 90 0 0 -249 c0 -218 2 -250 16 -255 9 -3 67 -6 130
-6 l114 0 0 -100 0 -100 -60 0 -60 0 0 -132 c0 -103 -3 -129 -12 -120 -22 22
-76 15 -94 -13 -19 -29 -11 -60 21 -81 22 -14 27 -14 55 -1 l30 15 0 -59 0
-59 -71 0 -72 0 27 25 c31 29 33 58 6 85 -26 26 -58 25 -87 -2 -30 -28 -29
-53 3 -83 l27 -25 -102 0 -101 0 0 140 0 140 -70 0 -70 0 0 110 0 110 -150 0
-150 0 0 -110 0 -110 -295 0 -294 0 -3 -137 -3 -138 -572 -3 c-315 -1 -573 0
-573 2 0 2 6 16 14 31 16 30 12 53 -12 73 -56 44 -135 -33 -85 -84 16 -15 9
-16 -120 -12 -137 4 -160 9 -139 30 9 9 16 7 31 -6 25 -23 41 -13 41 24 0 54
-61 80 -102 43 -21 -18 -24 -68 -5 -80 7 -5 -3 -10 -28 -13 -22 -3 -43 -5 -46
-3 -3 1 -7 86 -8 188 l-2 185 463 2 463 3 3 63 3 62 164 0 165 0 0 187 c0 145
3 184 12 175 17 -17 74 -15 93 4 25 26 16 76 -17 92 -23 11 -32 10 -58 -3
l-30 -16 0 117 c0 111 1 116 18 102 33 -30 60 -31 87 -4 14 14 25 33 25 42 0
48 -74 72 -112 37 -18 -16 -19 -15 -16 63 l3 79 80 0 80 0 3 123 3 122 -80 0
c-44 0 -83 4 -86 10 -4 6 -72 10 -171 10 l-164 0 0 608 c1 458 3 602 12 587
15 -27 28 -35 57 -35 56 0 83 73 39 104 -32 22 -55 20 -83 -9 l-25 -24 0 39 0
40 115 0 116 0 -3 118 -3 117 -112 3 -113 3 0 104 0 105 195 0 195 0 0 -105 0
-105 140 0 140 0 0 225 0 225 -335 0 -335 0 0 215 0 215 -466 0 c-307 0 -463
3 -459 10 4 6 130 10 346 10 l339 0 0 80 0 80 255 0 255 0 0 -65z m4350 56 c0
-19 -22 -23 -38 -7 -15 15 -14 16 11 16 15 0 27 -4 27 -9z m-3713 -18 c-16
-16 -18 -16 -34 0 -16 16 -15 17 17 17 32 0 33 -1 17 -17z m151 1 c-9 -9 -21
-13 -27 -10 -20 13 -11 26 16 26 25 0 26 -1 11 -16z m86 -47 c1 -40 -3 -57
-11 -57 -9 0 -13 19 -13 61 0 79 22 76 24 -4z m206 3 l0 -60 -95 0 -95 0 0 60
0 60 95 0 95 0 0 -60z m3228 28 c2 -9 -4 -18 -13 -21 -11 -5 -15 0 -15 19 0
28 23 29 28 2z m65 9 c9 -23 -8 -40 -22 -23 -13 15 -7 36 9 36 4 0 10 -6 13
-13z m1377 -87 l0 -100 -217 2 -218 3 -3 98 -3 97 221 0 220 0 0 -100z m150 0
l0 -101 -67 3 -68 3 -3 98 -3 97 71 0 70 0 0 -100z m268 91 c-1 -5 -39 -50
-83 -100 l-80 -92 -45 3 -45 3 -3 84 c-2 46 -1 90 2 98 4 10 36 13 132 13 70
0 124 -4 122 -9z m-5569 -15 c8 -10 8 -16 -2 -25 -16 -13 -27 -5 -27 21 0 21
13 23 29 4z m71 -3 c0 -23 -29 -53 -52 -53 -20 0 -22 8 -9 29 8 13 12 13 28 0
16 -12 17 -12 6 2 -10 12 -10 18 -1 27 17 17 28 15 28 -5z m79 -20 c-15 -18
-34 -1 -25 22 5 14 9 15 21 5 12 -10 13 -16 4 -27z m3599 -10 c2 -8 -6 -13
-22 -13 -25 0 -33 10 -19 24 10 10 36 3 41 -11z m120 1 c-9 -9 -21 -13 -27
-10 -20 13 -11 26 16 26 25 0 26 -1 11 -16z m3640 -10 c-9 -9 -21 -13 -27 -10
-20 13 -11 26 16 26 25 0 26 -1 11 -16z m-3679 -31 c-15 -18 -34 -1 -25 22 5
14 9 15 21 5 12 -10 13 -16 4 -27z m71 12 c0 -26 -14 -33 -25 -15 -9 14 1 40
15 40 5 0 10 -11 10 -25z m3569 -22 c-15 -18 -34 -1 -25 22 5 14 9 15 21 5 12
-10 13 -16 4 -27z m71 19 c0 -26 -11 -34 -27 -21 -10 9 -10 15 -2 25 16 19 29
17 29 -4z m-3791 -28 c-9 -11 -15 -12 -26 -3 -17 14 1 31 24 22 10 -4 11 -9 2
-19z m121 1 c11 -13 8 -15 -14 -15 -25 0 -33 10 -19 23 10 11 19 8 33 -8z
m-3930 -30 l0 -35 -245 0 -245 0 0 35 0 35 245 0 245 0 0 -35z m7568 17 c2 -7
-6 -12 -17 -12 -21 0 -27 11 -14 24 9 9 26 2 31 -12z m-3792 -3 c3 -6 -1 -18
-10 -27 -15 -15 -16 -14 -16 11 0 27 13 36 26 16z m67 -2 c9 -23 -8 -40 -22
-23 -13 15 -7 36 9 36 4 0 10 -6 13 -13z m-2413 -112 c0 -57 -4 -95 -10 -95
-6 0 -10 38 -10 95 0 57 4 95 10 95 6 0 10 -38 10 -95z m40 0 c0 -78 -3 -95
-15 -95 -12 0 -15 17 -15 95 0 78 3 95 15 95 12 0 15 -17 15 -95z m40 0 c0
-78 -3 -95 -15 -95 -12 0 -15 17 -15 95 0 78 3 95 15 95 12 0 15 -17 15 -95z
m40 0 c0 -57 -4 -95 -10 -95 -6 0 -10 38 -10 95 0 57 4 95 10 95 6 0 10 -38
10 -95z m50 0 c0 -84 -2 -95 -17 -95 -14 0 -18 8 -16 37 1 21 2 64 2 96 1 44
4 57 16 57 12 0 15 -17 15 -95z m50 0 c0 -88 -1 -95 -20 -95 -19 0 -20 7 -20
95 0 88 1 95 20 95 19 0 20 -7 20 -95z m50 0 c0 -88 -1 -95 -20 -95 -19 0 -20
7 -20 95 0 88 1 95 20 95 19 0 20 -7 20 -95z m50 -1 c0 -84 -2 -95 -17 -92
-14 2 -17 17 -17 95 -1 82 1 93 17 93 15 0 17 -11 17 -96z m40 1 c0 -78 -3
-95 -15 -95 -12 0 -15 17 -15 95 0 78 3 95 15 95 12 0 15 -17 15 -95z m40 0
c0 -57 -4 -95 -10 -95 -6 0 -10 38 -10 95 0 57 4 95 10 95 6 0 10 -38 10 -95z
m1981 62 c-5 -5 -17 -7 -26 -3 -14 5 -15 9 -5 21 10 12 16 13 27 4 9 -8 10
-16 4 -22z m-4633 -334 l2 -343 -455 0 -455 0 0 338 c0 186 3 342 7 345 3 4
207 6 452 5 l446 -3 3 -342z m6182 263 c0 -40 9 -56 90 -168 74 -101 90 -130
90 -159 l0 -36 -377 -6 c-208 -3 -381 -3 -385 -1 -9 6 -11 375 -2 398 5 14 41
16 295 16 l289 0 0 -44z m-2500 -61 l0 -45 -195 0 -195 0 0 45 0 45 195 0 195
0 0 -45z m120 0 l0 -45 -55 0 -55 0 0 45 0 45 55 0 55 0 0 -45z m-615 -87 c-4
-51 -8 -94 -9 -95 -3 -3 -35 -5 -78 -4 l-48 1 0 95 0 95 71 0 71 0 -7 -92z
m85 12 l0 -80 60 0 c47 0 60 -3 60 -15 0 -12 -17 -15 -95 -15 l-95 0 0 95 0
95 35 0 35 0 0 -80z m912 -140 c-1 -118 -2 -268 -2 -332 l0 -118 -45 0 -45 0
0 336 0 335 48 -3 47 -3 -3 -215z m103 118 c3 -57 5 -206 3 -333 l-3 -230 -45
0 -45 0 1 105 c0 58 1 207 2 333 l2 227 39 0 39 0 7 -102z m-1630 -1548 l0
-1605 -210 -5 c-115 -3 -270 -4 -342 -2 l-133 3 0 1604 0 1604 128 4 c70 1
224 3 342 2 l215 0 0 -1605z m1025 1415 c0 -168 -1 -175 -20 -175 -11 0 -21 6
-21 13 -1 6 -2 17 -4 22 -1 6 -3 61 -3 123 l-2 112 -170 0 -170 0 0 40 0 40
195 0 195 0 0 -175z m120 0 l0 -175 -55 0 -55 0 0 175 0 175 55 0 55 0 0 -175z
m-615 8 c-2 -10 -4 -39 -4 -65 l-1 -48 -65 0 -65 0 0 65 0 65 69 0 c61 0 69
-2 66 -17z m205 -48 l0 -65 -95 0 -95 0 0 65 0 65 95 0 95 0 0 -65z m-2850
-65 l0 -50 -260 0 -260 0 0 50 0 50 260 0 260 0 0 -50z m130 0 l0 -51 -57 3
c-58 3 -58 3 -61 36 -5 55 1 62 63 62 l55 0 0 -50z m4910 -37 l0 -48 -75 -3
-75 -3 0 51 0 50 75 0 75 0 0 -47z m80 2 c0 -41 -2 -45 -25 -45 -14 0 -28 -1
-32 -2 -9 -4 -16 60 -9 78 3 8 19 14 36 14 29 0 30 -2 30 -45z m150 0 l0 -45
-70 0 -70 0 0 45 0 45 70 0 70 0 0 -45z m50 0 c0 -33 -4 -45 -15 -45 -11 0
-15 12 -15 45 0 33 4 45 15 45 11 0 15 -12 15 -45z m496 -32 c-3 -42 -6 -136
-6 -209 l0 -133 -82 -3 -83 -3 -3 -87 -3 -88 -174 0 -175 0 0 195 c0 188 1
195 20 195 19 0 20 7 20 105 l0 105 246 0 247 0 -7 -77z m274 -223 l0 -300
-75 -1 c-41 -1 -82 -1 -90 -1 -8 0 -31 0 -50 1 l-35 1 0 83 c0 48 -5 88 -11
94 -8 8 -9 69 -4 217 l7 206 129 0 129 0 0 -300z m-6090 70 l0 -160 -65 0 -64
0 -3 108 -3 107 -192 3 -193 2 0 50 0 50 260 0 260 0 0 -160z m130 0 l0 -161
-57 3 -58 3 -3 145 c-1 79 0 150 2 157 4 8 25 13 61 13 l55 0 0 -160z m4910
75 l0 -45 -75 0 -75 0 0 45 0 45 75 0 75 0 0 -45z m80 -1 c0 -45 0 -45 -32
-42 -31 3 -33 6 -36 46 l-3 42 35 0 c36 0 36 0 36 -46z m150 1 l0 -45 -70 0
-70 0 0 45 0 45 70 0 70 0 0 -45z m50 0 c0 -33 -4 -45 -15 -45 -11 0 -15 12
-15 45 0 33 4 45 15 45 11 0 15 -12 15 -45z m-2162 13 c-3 -7 -13 -13 -23 -13
-10 0 -20 6 -22 13 -3 7 5 12 22 12 17 0 25 -5 23 -12z m-42 -47 c-13 -20 -26
-11 -26 16 0 25 1 26 16 11 9 -9 13 -21 10 -27z m64 13 c0 -22 -2 -25 -15 -14
-12 10 -13 16 -4 26 16 20 19 18 19 -12z m-22 -32 c2 -7 -7 -12 -22 -12 -27 0
-35 15 -13 23 17 7 30 3 35 -11z m3022 4 c-6 -8 -18 -12 -26 -9 -23 9 -16 23
12 23 22 0 24 -2 14 -14z m-3981 -32 c-9 -11 -15 -12 -26 -3 -17 14 1 31 24
22 10 -4 11 -9 2 -19z m849 14 c-3 -7 -13 -13 -23 -13 -10 0 -20 6 -22 13 -3
7 5 12 22 12 17 0 25 -5 23 -12z m3097 2 c10 -16 -16 -43 -28 -31 -11 11 -2
41 12 41 5 0 13 -5 16 -10z m65 -10 c0 -21 -15 -27 -25 -10 -7 12 2 30 16 30
5 0 9 -9 9 -20z m-3206 -16 c7 -18 0 -34 -15 -34 -5 0 -9 11 -9 25 0 28 15 34
24 9z m66 -9 c0 -14 -4 -25 -9 -25 -12 0 -23 29 -15 41 10 18 24 9 24 -16z
m-3624 8 c12 -4 14 -59 14 -319 l0 -314 -412 0 c-383 0 -411 1 -389 16 18 13
22 24 19 48 -3 30 -2 32 23 28 32 -5 69 27 69 58 0 25 -34 60 -58 60 -32 0
-62 -29 -62 -61 0 -24 -4 -29 -25 -29 -30 0 -65 -32 -65 -60 0 -11 9 -29 20
-40 20 -20 20 -20 -5 -20 l-25 0 0 195 0 195 205 0 205 0 0 118 c0 65 3 122 7
126 8 8 458 7 479 -1z m2720 -4 c3 -6 -1 -18 -10 -27 -15 -15 -16 -14 -16 11
0 27 13 36 26 16z m64 -16 c0 -25 -1 -26 -16 -11 -9 9 -13 21 -10 27 13 20 26
11 26 -16z m3954 -4 c-7 -11 -44 -12 -44 -1 0 4 5 13 12 20 13 13 42 -4 32
-19z m-7450 -10 c16 -80 17 -79 -89 -79 l-95 0 0 48 c0 27 3 52 7 55 3 4 43 7
88 7 l83 0 6 -31z m216 -24 l0 -55 -100 0 -100 0 0 55 0 55 100 0 100 0 0 -55z
m3251 2 c-5 -5 -17 -7 -26 -3 -14 5 -15 9 -5 21 10 12 16 13 27 4 9 -8 10 -16
4 -22z m847 16 c2 -8 -6 -13 -22 -13 -25 0 -33 10 -19 24 10 10 36 3 41 -11z
m-110 -2 c10 -6 10 -10 -3 -21 -18 -15 -42 0 -31 19 8 13 16 14 34 2z m-768
-36 c0 -3 -9 -5 -20 -5 -11 0 -20 7 -20 15 0 13 4 14 20 5 11 -6 20 -13 20
-15z m730 -20 c-8 -10 -17 -12 -23 -6 -5 5 -6 19 -2 31 6 20 9 21 23 7 13 -13
13 -19 2 -32z m70 18 c0 -23 -29 -53 -52 -53 -21 0 -23 11 -6 28 9 9 15 9 27
-1 12 -10 13 -9 7 1 -9 16 -1 42 14 42 5 0 10 -8 10 -17z m-740 -118 l0 -105
-45 0 -45 0 0 105 0 105 45 0 45 0 0 -105z m105 0 l0 -100 -45 0 -45 0 -3 103
-3 103 48 -3 48 -3 0 -100z m1305 -222 c0 -174 2 -314 5 -312 2 3 5 146 5 317
l1 312 45 0 44 0 0 -320 0 -320 -95 0 -95 0 0 320 0 320 45 0 45 0 0 -317z
m-4900 237 l0 -50 -95 0 -95 0 0 50 0 50 95 0 95 0 0 -50z m210 0 l0 -50 -100
0 -100 0 0 50 0 50 100 0 100 0 0 -50z m620 -40 l0 -50 -45 0 -45 0 0 50 0 50
45 0 45 0 0 -50z m110 6 l0 -44 -45 -4 -45 -3 0 47 0 48 45 0 45 0 0 -44z
m1640 -36 l0 -70 -50 0 -50 0 0 70 0 70 50 0 50 0 0 -70z m88 -3 c3 -74 -5
-85 -53 -73 -23 6 -25 11 -25 70 0 34 3 66 7 70 4 4 21 6 38 4 30 -3 30 -3 33
-71z m4322 -17 l0 -80 -35 0 -35 0 0 80 0 80 35 0 35 0 0 -80z m78 3 l-3 -78
-32 -3 -33 -3 0 80 0 81 35 0 36 0 -3 -77z m-1821 -30 c-4 -43 -6 -79 -7 -80
0 -2 -11 -3 -25 -3 -25 0 -25 1 -25 80 l0 80 31 0 32 0 -6 -77z m73 2 c0 -58
-3 -75 -14 -75 -8 0 -21 -3 -30 -6 -14 -5 -16 5 -16 75 l0 81 30 0 30 0 0 -75z
m-4380 -30 l0 -55 -45 0 -45 0 0 49 0 50 43 4 c23 2 43 4 45 5 1 1 2 -23 2
-53z m-109 38 c1 -5 2 -27 3 -50 l2 -43 -48 0 -48 0 0 50 0 50 45 0 c25 0 45
-3 46 -7z m2659 -133 l0 -110 -45 0 -45 0 0 110 0 110 45 0 45 0 0 -110z m103
-3 l2 -107 -41 0 -41 0 -6 68 c-4 37 -7 86 -7 110 l0 43 46 -3 45 -3 2 -108z
m-1032 83 c17 0 19 -8 19 -80 l0 -80 -50 0 -50 0 0 86 0 87 31 -7 c17 -3 40
-6 50 -6z m107 -77 l-3 -78 -32 -3 c-33 -3 -33 -3 -35 45 -1 26 -2 63 -3 81
-2 31 -1 32 37 32 l39 0 -3 -77z m3502 38 c0 -5 -6 -14 -14 -20 -10 -8 -16 -8
-25 2 -6 8 -8 17 -4 20 9 10 43 8 43 -2z m820 -26 c0 -33 -2 -35 -35 -35 -33
0 -35 2 -35 35 0 33 2 35 35 35 33 0 35 -2 35 -35z m70 0 c0 -32 -2 -35 -30
-35 -28 0 -30 3 -30 35 0 32 2 35 30 35 28 0 30 -3 30 -35z m133 28 c4 -3 2
-12 -4 -20 -9 -10 -15 -10 -25 -2 -8 6 -11 15 -8 20 6 11 28 12 37 2z m-1953
-72 c0 -72 -6 -91 -31 -91 -17 0 -19 8 -19 75 0 73 1 75 25 75 24 0 25 -3 25
-59z m80 -16 l0 -75 -35 0 -35 0 0 75 0 75 35 0 35 0 0 -75z m806 36 c-13 -20
-26 -11 -26 16 0 25 1 26 16 11 9 -9 13 -21 10 -27z m62 4 c-2 -10 -7 -12 -17
-5 -13 7 -13 11 -1 25 15 18 24 8 18 -20z m1028 -13 c-4 -3 -11 -1 -18 6 -8 8
-8 15 3 28 13 16 14 16 17 -5 2 -13 1 -25 -2 -29z m-61 18 c0 -7 -6 -15 -12
-17 -8 -3 -13 4 -13 17 0 13 5 20 13 18 6 -3 12 -11 12 -18z m-7172 -17 c4 -3
2 -12 -4 -20 -9 -10 -15 -10 -25 -2 -8 6 -11 15 -8 20 6 11 28 12 37 2z m831
-1 c2 -4 1 -14 -4 -22 -7 -11 -11 -12 -25 0 -13 10 -13 15 -3 21 17 11 26 11
32 1z m5356 -13 c0 -5 -11 -9 -25 -9 -26 0 -34 15 -12 23 16 5 37 -3 37 -14z
m1016 -11 c-23 -13 -40 0 -25 18 9 11 15 12 26 2 12 -10 12 -13 -1 -20z
m-7174 -34 c-8 -14 -10 -14 -21 0 -11 13 -11 19 0 32 11 14 13 14 21 0 5 -9 5
-23 0 -32z m838 9 c0 -16 -26 -17 -35 -3 -4 6 -1 18 6 26 10 12 14 12 20 2 5
-7 9 -19 9 -25z m6138 -36 l3 -67 -36 0 -35 0 0 64 c0 67 6 76 45 72 17 -3 20
-12 23 -69z m72 3 l0 -70 -30 0 -30 0 0 63 c0 71 3 77 37 77 22 0 23 -3 23
-70z m17 -37 c-2 -21 -4 -4 -4 37 0 41 2 58 4 38 2 -21 2 -55 0 -75z m-7113
68 c28 -29 22 -49 -11 -37 -12 5 -13 9 -3 21 15 18 -1 20 -18 3 -9 -9 -12 -6
-12 15 0 34 10 34 44 -2z m811 9 c0 -7 -6 -15 -12 -17 -8 -3 -13 4 -13 17 0
13 5 20 13 18 6 -3 12 -11 12 -18z m45 -30 c0 -14 -20 -22 -37 -16 -12 5 -13
9 -3 21 11 14 40 10 40 -5z m5350 1 c0 -12 -29 -23 -41 -15 -18 10 -9 24 16
24 14 0 25 -4 25 -9z m-6258 -28 c18 -17 25 -53 9 -53 -19 0 -31 26 -18 40 10
12 9 12 -5 2 -11 -9 -18 -10 -23 -2 -3 5 -11 10 -17 10 -7 0 -6 -6 2 -15 10
-12 10 -18 -1 -32 -13 -16 -12 -17 4 -4 14 11 20 11 33 0 14 -11 14 -13 -1
-22 -20 -11 -65 16 -65 40 0 21 29 53 48 53 9 0 24 -7 34 -17z m6207 -20 c-15
-18 -34 -1 -25 22 5 14 9 15 21 5 12 -10 13 -16 4 -27z m71 12 c0 -27 -12 -32
-29 -12 -8 10 -7 17 1 25 19 19 28 14 28 -13z m-30 -30 c11 -13 8 -15 -14 -15
-25 0 -33 10 -19 23 10 11 19 8 33 -8z m-16 -25 c17 0 37 5 43 11 7 7 9 3 6
-15 -5 -22 -8 -24 -24 -15 -22 12 -52 5 -74 -17 -13 -14 -15 -11 -15 26 0 38
1 40 16 26 8 -9 30 -16 48 -16z m124 14 c-9 -9 -21 -13 -27 -10 -20 13 -11 26
16 26 25 0 26 -1 11 -16z m-201 -356 c-1 -68 -3 -15 -3 117 0 132 2 187 3 123
2 -64 2 -172 0 -240z m162 315 c-15 -18 -34 -1 -25 22 5 14 9 15 21 5 12 -10
13 -16 4 -27z m71 19 c0 -26 -11 -34 -27 -21 -10 9 -10 15 -2 25 16 19 29 17
29 -4z m574 -14 c3 -13 6 -38 6 -56 l0 -32 -177 2 -178 3 -3 39 c-6 68 -11 66
177 66 166 0 169 0 175 -22z m23 -60 c-2 -18 -4 -6 -4 27 0 33 2 48 4 33 2
-15 2 -42 0 -60z m93 27 l0 -55 -35 0 -35 0 0 55 0 55 35 0 35 0 0 -55z m70 0
c0 -54 0 -55 -30 -55 -30 0 -30 1 -30 55 0 54 0 55 30 55 30 0 30 -1 30 -55z
m17 -27 c-2 -18 -4 -6 -4 27 0 33 2 48 4 33 2 -15 2 -42 0 -60z m148 63 c3
-11 5 -35 3 -55 l-2 -36 -63 0 -63 0 0 55 0 55 59 0 c50 0 61 -3 66 -19z
m-1067 -27 c-9 -9 -21 -13 -27 -10 -20 13 -11 26 16 26 25 0 26 -1 11 -16z
m113 1 c0 -5 -9 -11 -21 -13 -20 -3 -27 8 -13 22 10 9 34 3 34 -9z m-5571 -13
c0 -4 -33 -40 -73 -80 l-72 -72 -280 0 -280 1 -85 79 -85 79 438 1 c240 0 437
-3 437 -8z m5419 -29 c-15 -18 -34 -1 -25 22 5 14 9 15 21 5 12 -10 13 -16 4
-27z m71 18 c0 -23 -16 -36 -25 -21 -9 14 1 40 15 40 5 0 10 -9 10 -19z m119
-423 l1 -278 -115 0 -115 0 0 337 c0 325 1 336 18 320 37 -33 102 -12 102 33
0 15 6 17 39 13 26 -4 41 -1 47 8 14 22 22 -127 23 -433z m-6400 344 l81 -73
0 -248 0 -248 -85 -66 c-47 -37 -87 -67 -90 -67 -3 0 -5 176 -5 391 0 241 4
389 9 387 6 -1 46 -36 90 -76z m809 -506 l-3 -194 -77 66 -78 65 0 246 0 246
78 78 77 77 3 -195 c1 -107 1 -282 0 -389z m5443 549 c0 -5 -9 -11 -21 -13
-20 -3 -27 8 -13 22 10 9 34 3 34 -9z m719 -75 l0 -60 -177 2 -178 3 -3 44
c-5 74 -13 71 183 71 l175 0 0 -60z m105 40 l70 0 -1 -38 c-1 -20 -2 -43 -3
-49 -1 -9 -23 -13 -75 -13 -82 0 -86 3 -86 85 0 30 3 36 12 27 7 -7 41 -12 83
-12z m243 -19 c2 -19 1 -44 -2 -57 -6 -23 -11 -24 -81 -24 l-75 0 0 46 c0 62
17 75 95 71 l60 -2 3 -34z m-6960 -529 l242 -2 0 236 c0 219 1 235 18 232 16
-3 17 -24 20 -246 l2 -242 -275 0 -275 0 0 238 c0 131 3 242 8 246 4 4 9 -97
12 -226 l5 -233 243 -3z m232 233 l0 -215 -235 0 -235 0 0 215 0 215 235 0
235 0 0 -215z m3718 101 l-3 -59 -58 -2 c-31 -2 -60 1 -63 6 -2 5 14 43 37 84
l41 76 25 -23 c21 -19 23 -30 21 -82z m-736 57 c10 -9 18 -24 18 -35 0 -20 -8
-22 -29 -9 -13 8 -13 12 0 27 12 15 12 16 -8 10 -25 -8 -46 0 -38 15 9 14 37
11 57 -8z m845 -110 c-4 -6 -21 -9 -39 -7 -18 1 -39 3 -45 3 -9 1 -13 19 -13
57 l0 56 51 -50 c29 -27 49 -54 46 -59z m-903 91 c13 -5 14 -9 5 -20 -16 -20
-29 -17 -29 6 0 22 1 23 24 14z m45 -38 c9 -10 8 -15 -4 -20 -8 -3 -22 -3 -30
0 -12 5 -13 10 -4 20 6 8 15 14 19 14 4 0 13 -6 19 -14z m-899 -61 l0 -55 -40
0 -40 0 0 55 0 55 40 0 40 0 0 -55z m90 0 l0 -55 -35 0 -35 0 0 55 0 55 35 0
35 0 0 -55z m750 34 c0 -5 -4 -9 -10 -9 -5 0 -10 7 -10 16 0 8 5 12 10 9 6 -3
10 -10 10 -16z m1833 -124 l-2 -130 -30 -3 -31 -3 0 136 0 136 33 -3 32 -3 -2
-130z m67 -6 c0 -140 0 -140 -22 -137 -22 3 -23 6 -26 141 l-3 137 26 0 25 0
0 -141z m-1800 -29 l0 -140 -55 0 -55 0 0 140 0 140 55 0 55 0 0 -140z m130 0
l0 -140 -60 0 -60 0 0 103 c0 56 3 119 6 140 l7 37 53 0 54 0 0 -140z m3276
108 c-3 -13 -6 -31 -6 -40 0 -17 -16 -18 -190 -18 l-190 0 0 40 0 40 196 0
196 0 -6 -22z m134 -18 l0 -40 -60 0 -60 0 0 40 0 40 60 0 60 0 0 -40z m180 0
l0 -40 -85 0 -85 0 0 40 0 40 85 0 85 0 0 -40z m-3010 -20 c0 -22 -3 -40 -7
-40 -5 0 -28 18 -53 40 l-45 39 53 1 52 0 0 -40z m110 -16 l0 -55 -47 3 -48 3
-3 53 -3 52 50 0 51 0 0 -56z m-1760 -59 l0 -55 -40 0 -40 0 0 55 0 55 40 0
40 0 0 -55z m90 0 l0 -55 -41 0 -42 0 7 38 c3 20 6 45 6 55 0 13 8 17 35 17
l35 0 0 -55z m4370 35 c0 -9 -102 -91 -107 -86 -2 2 -1 22 3 44 7 43 11 46 77
48 15 1 27 -2 27 -6z m200 -47 l0 -53 -147 0 c-118 1 -145 3 -132 13 8 7 35
28 60 48 54 45 52 44 144 44 l75 0 0 -52z m-320 -3 l0 -50 -190 0 -190 0 0 50
0 50 190 0 190 0 0 -50z m-1673 -103 c4 -3 7 -53 5 -111 l-3 -106 -30 0 -29 0
0 114 0 113 24 -2 c14 -2 28 -5 33 -8z m73 -107 l0 -110 -25 0 -25 0 0 110 0
110 25 0 25 0 0 -110z m-1801 -5 c-3 -135 -3 -135 -60 -135 l-49 0 0 110 0
110 56 0 55 0 -2 -85z m131 -25 l0 -110 -60 0 -60 0 0 110 0 110 60 0 60 0 0
-110z m-3063 50 c21 -16 58 -47 83 -69 l45 -40 -432 -1 c-238 0 -433 2 -433 4
0 5 131 110 155 124 14 8 101 12 282 11 l262 0 38 -29z m6173 0 c-21 -17 -41
-20 -137 -20 -106 0 -113 1 -113 20 0 19 7 20 138 20 l137 0 -25 -20z m140
-15 c0 -20 -6 -38 -13 -41 -8 -3 -97 -1 -198 4 -173 8 -177 9 -69 11 112 1
116 2 150 31 28 23 45 30 83 30 l47 0 0 -35z m320 -5 l0 -40 -155 0 -155 0 0
40 0 40 155 0 155 0 0 -40z m-905 -30 c4 -6 -25 -10 -79 -10 -51 0 -86 4 -86
10 0 6 33 10 79 10 44 0 83 -4 86 -10z m105 0 c0 -5 -20 -10 -45 -10 -25 0
-45 5 -45 10 0 6 20 10 45 10 25 0 45 -4 45 -10z m480 -70 l0 -50 -195 0 -195
0 0 49 c0 38 4 50 16 53 10 2 97 2 195 0 l179 -3 0 -49z m-586 28 c-6 -10
-142 -9 -159 1 -11 7 121 18 147 12 10 -2 15 -8 12 -13z m106 7 c0 -11 -12
-15 -45 -15 -57 0 -59 18 -2 23 23 2 43 4 45 5 1 1 2 -5 2 -13z m800 -35 l0
-50 -155 0 -155 0 0 50 0 50 155 0 155 0 0 -50z m-900 0 c0 -6 -35 -10 -85
-10 -50 0 -85 4 -85 10 0 6 35 10 85 10 50 0 85 -4 85 -10z m100 0 c0 -5 -20
-10 -45 -10 -25 0 -45 5 -45 10 0 6 20 10 45 10 25 0 45 -4 45 -10z m-6159
-33 c0 -7 1 -61 2 -122 l2 -110 233 -3 232 -2 0 -160 0 -160 -411 0 -410 0 20
26 c12 15 21 33 21 40 0 23 -38 54 -65 54 -14 0 -34 -9 -45 -20 l-20 -20 0
244 c0 219 2 245 17 248 9 2 108 2 220 0 150 -2 203 -6 204 -15z m259 -37 l0
-50 -120 0 -120 0 0 50 0 50 120 0 120 0 0 -50z m200 0 l0 -50 -95 0 -95 0 0
50 0 50 95 0 95 0 0 -50z m4610 18 c0 -17 -3 -19 -9 -9 -5 7 -15 17 -22 22
-10 6 -8 9 9 9 16 0 22 -6 22 -22z m990 12 c0 -6 -35 -10 -85 -10 -50 0 -85 4
-85 10 0 6 35 10 85 10 50 0 85 -4 85 -10z m100 0 c0 -5 -20 -10 -45 -10 -25
0 -45 5 -45 10 0 6 20 10 45 10 25 0 45 -4 45 -10z m-1137 -7 c4 -3 2 -12 -4
-20 -9 -10 -15 -10 -25 -2 -8 6 -11 15 -8 20 6 11 28 12 37 2z m-1825 -105
c-3 -88 -4 -93 -25 -96 -22 -3 -23 -1 -23 92 l0 96 25 0 26 0 -3 -92z m82 -3
l0 -95 -35 0 -35 0 0 95 0 95 35 0 35 0 0 -95z m1330 11 c0 -46 3 -104 6 -130
l7 -46 -32 0 -31 0 0 130 0 130 25 0 c25 0 25 -1 25 -84z m78 -43 l-3 -128
-27 -3 -28 -3 0 130 0 131 30 0 31 0 -3 -127z m358 79 c-4 -3 -11 -1 -18 6 -8
8 -8 15 3 28 13 16 14 16 17 -5 2 -13 1 -25 -2 -29z m1007 33 c-4 -16 -155
-13 -161 3 -3 10 15 12 80 10 49 -2 82 -7 81 -13z m107 0 c0 -11 -12 -15 -45
-15 -33 0 -45 4 -45 15 0 11 12 15 45 15 33 0 45 -4 45 -15z m-1175 -15 c0 -7
-6 -15 -12 -17 -8 -3 -13 4 -13 17 0 13 5 20 13 18 6 -3 12 -11 12 -18z m37
-42 c-5 -5 -16 -6 -26 -2 -13 5 -14 9 -5 20 9 11 15 12 26 3 8 -7 10 -16 5
-21z m1038 22 c0 -6 -35 -10 -85 -10 -50 0 -85 4 -85 10 0 6 35 10 85 10 50 0
85 -4 85 -10z m100 0 c0 -5 -20 -10 -45 -10 -25 0 -45 5 -45 10 0 6 20 10 45
10 25 0 45 -4 45 -10z m-5900 -70 c0 -27 4 -50 8 -50 5 0 7 23 4 50 l-4 50 96
0 96 0 0 -60 0 -60 -220 0 -220 0 0 60 0 60 120 0 120 0 0 -50z m5798 38 c-5
-13 -128 -24 -155 -14 -34 13 4 26 78 26 60 0 80 -3 77 -12z m102 -3 c0 -11
-11 -15 -39 -15 -38 0 -57 10 -44 24 3 3 24 6 45 6 27 0 38 -4 38 -15z m-100
-35 c0 -6 -35 -10 -85 -10 -50 0 -85 4 -85 10 0 6 35 10 85 10 50 0 85 -4 85
-10z m100 0 c0 -5 -20 -10 -45 -10 -25 0 -45 5 -45 10 0 6 20 10 45 10 25 0
45 -4 45 -10z m-2080 -14 c0 -7 -9 -40 -21 -74 l-21 -62 -64 0 -64 0 0 70 0
69 66 3 c36 2 74 4 85 5 10 1 19 -4 19 -11z m-184 -42 c-3 -26 -6 -57 -6 -70
0 -23 -3 -24 -80 -24 l-80 0 0 70 0 70 86 0 87 0 -7 -46z m-1552 18 c3 -5 2
-65 -1 -135 l-6 -127 -44 0 -43 0 0 128 c0 71 3 132 7 135 9 10 81 9 87 -1z
m74 -129 l3 -133 -36 0 -36 0 6 123 c8 146 9 149 37 145 22 -3 23 -7 26 -135z
m3642 127 c0 -6 -35 -10 -85 -10 -50 0 -85 4 -85 10 0 6 35 10 85 10 50 0 85
-4 85 -10z m100 0 c0 -5 -20 -10 -45 -10 -25 0 -45 5 -45 10 0 6 20 10 45 10
25 0 45 -4 45 -10z m-5540 -264 c0 -274 6 -256 -81 -256 l-49 0 0 250 0 250
65 0 65 0 0 -244z m180 -1 l0 -246 -82 3 -82 3 -4 243 -4 242 86 0 86 0 0
-245z m5258 233 c-3 -9 -29 -13 -83 -13 -54 0 -80 4 -82 13 -4 9 17 12 82 12
65 0 86 -3 83 -12z m102 -3 c0 -11 -12 -15 -45 -15 -33 0 -45 4 -45 15 0 11
12 15 45 15 33 0 45 -4 45 -15z m-5260 -55 l0 -50 -40 0 -40 0 0 50 0 50 40 0
40 0 0 -50z m68 3 c-3 -44 -5 -48 -30 -51 -27 -3 -28 -2 -28 47 0 50 1 51 31
51 30 0 30 -1 27 -47z m2226 -31 c1 -68 0 -72 -21 -72 -22 0 -23 4 -23 76 0
72 1 75 22 72 19 -3 21 -9 22 -76z m84 1 l3 -73 -36 0 -35 0 0 76 0 75 33 -3
32 -3 3 -72z m2782 47 c0 -6 -35 -10 -85 -10 -50 0 -85 4 -85 10 0 6 35 10 85
10 50 0 85 -4 85 -10z m100 0 c0 -5 -20 -10 -45 -10 -25 0 -45 5 -45 10 0 6
20 10 45 10 25 0 45 -4 45 -10z m-100 -31 c0 -5 -39 -9 -86 -9 -56 0 -83 4
-79 10 8 13 165 11 165 -1z m100 1 c0 -5 -21 -10 -46 -10 -27 0 -43 4 -39 10
3 6 24 10 46 10 21 0 39 -4 39 -10z m-1542 -147 l-3 -138 -27 -2 -28 -2 0 140
0 139 30 0 31 0 -3 -137z m66 -1 c-1 -73 -3 -134 -5 -137 -3 -2 -15 -2 -27 2
-21 5 -22 10 -22 140 l0 134 28 -3 27 -3 -1 -133z m-654 121 c0 -3 -7 -30 -16
-59 -16 -49 -19 -52 -58 -57 -22 -3 -44 -3 -48 -1 -10 6 -11 108 -1 117 8 9
123 9 123 0z m2030 -3 c0 -6 -35 -10 -86 -10 -54 0 -83 4 -79 10 3 6 42 10 86
10 46 0 79 -4 79 -10z m100 0 c0 -5 -21 -10 -46 -10 -27 0 -43 4 -39 10 3 6
24 10 46 10 21 0 39 -4 39 -10z m-2272 -57 l-3 -58 -77 -3 -78 -3 0 61 0 60
80 0 81 0 -3 -57z m-2988 -24 l0 -49 -40 0 -40 0 0 49 c0 49 1 50 33 53 17 2
35 2 40 0 4 -2 7 -25 7 -53z m70 6 c0 -54 0 -55 -30 -55 -29 0 -30 1 -30 48 0
55 4 62 37 62 21 0 23 -4 23 -55z m5090 45 c0 -6 -35 -10 -86 -10 -54 0 -83 4
-79 10 3 6 42 10 86 10 46 0 79 -4 79 -10z m100 0 c0 -5 -21 -10 -46 -10 -27
0 -43 4 -39 10 3 6 24 10 46 10 21 0 39 -4 39 -10z m-107 -32 c6 -4 -28 -8
-76 -8 -58 0 -86 4 -82 10 8 12 139 10 158 -2z m107 2 c0 -5 -21 -10 -46 -10
-27 0 -43 4 -39 10 3 6 24 10 46 10 21 0 39 -4 39 -10z m-137 -37 c-23 -2 -64
-2 -90 0 -26 2 -7 3 42 3 50 0 71 -1 48 -3z m120 0 c-13 -2 -35 -2 -50 0 -16
2 -5 4 22 4 28 0 40 -2 28 -4z m-88 -33 c-3 -5 -39 -10 -80 -10 -41 0 -77 5
-80 10 -4 6 25 10 80 10 55 0 84 -4 80 -10z m105 0 c0 -5 -20 -10 -45 -10 -25
0 -45 5 -45 10 0 6 20 10 45 10 25 0 45 -4 45 -10z m517 -2 c-2 -7 -15 -12
-28 -10 -18 2 -21 0 -12 -9 13 -13 0 -39 -18 -39 -15 0 -10 32 8 52 18 20 57
25 50 6z m-7027 -7 c0 -5 -6 -14 -14 -20 -10 -8 -16 -8 -25 2 -6 8 -8 17 -4
20 9 10 43 8 43 -2z m2688 -108 l-3 -108 -42 -3 -43 -3 0 104 c0 57 3 107 7
110 3 4 24 7 45 7 l39 0 -3 -107z m82 -3 l0 -110 -35 0 -35 0 0 110 0 110 35
0 35 0 0 -110z m4286 75 c-5 -14 -9 -15 -21 -5 -12 10 -13 16 -4 27 15 18 34
1 25 -22z m-7104 -17 c-10 -10 -15 -10 -21 1 -5 8 -7 21 -4 28 5 12 8 12 21
-1 13 -13 14 -18 4 -28z m68 10 c0 -30 -1 -31 -17 -16 -13 14 -14 20 -3 32 18
22 20 20 20 -16z m6390 22 c0 -6 -35 -10 -85 -10 -50 0 -85 4 -85 10 0 6 35
10 85 10 50 0 85 -4 85 -10z m83 3 c-13 -2 -33 -2 -45 0 -13 2 -3 4 22 4 25 0
35 -2 23 -4z m437 -123 l0 -110 -200 0 -200 0 0 110 0 110 200 0 200 0 0 -110z
m-420 85 c0 -13 -22 -15 -135 -15 -113 0 -135 2 -135 15 0 13 22 15 135 15
113 0 135 -2 135 -15z m520 0 c11 -13 8 -15 -20 -15 -28 0 -31 2 -20 15 7 8
16 15 20 15 4 0 13 -7 20 -15z m-7039 -28 c-5 -5 -17 -7 -26 -3 -14 5 -15 9
-5 21 10 12 16 13 27 4 9 -8 10 -16 4 -22z m-51 -8 c0 -5 -7 -9 -15 -9 -9 0
-15 9 -15 21 0 18 2 19 15 9 8 -7 15 -16 15 -21z m7033 -11 c-20 -22 -32 -15
-26 16 4 21 8 23 24 13 17 -10 17 -13 2 -29z m-463 12 c0 -6 -52 -10 -135 -10
-83 0 -135 4 -135 10 0 6 52 10 135 10 83 0 135 -4 135 -10z m518 -26 c-9 -9
-21 -13 -27 -10 -20 13 -11 26 16 26 25 0 26 -1 11 -16z m-518 -9 c0 -13 -21
-15 -129 -15 -118 0 -152 6 -134 24 3 3 64 6 135 6 107 0 128 -2 128 -15z
m-5690 -430 l0 -435 -455 0 -455 0 0 435 0 435 455 0 455 0 0 -435z m6169 398
c-15 -18 -34 -1 -25 22 5 14 9 15 21 5 12 -10 13 -16 4 -27z m71 12 c0 -27
-12 -32 -29 -12 -8 10 -7 17 1 25 19 19 28 14 28 -13z m-5812 -7 c-3 -7 -13
-13 -23 -13 -10 0 -20 6 -22 13 -3 7 5 12 22 12 17 0 25 -5 23 -12z m3630 -5
c-3 -17 -31 -18 -393 -21 -228 -1 -393 2 -398 7 -28 28 12 31 399 31 371 0
395 -1 392 -17z m-1308 -2 c0 -12 -29 -23 -41 -15 -18 10 -9 24 16 24 14 0 25
-4 25 -9z m2940 -1 c0 -6 -52 -10 -135 -10 -83 0 -135 4 -135 10 0 6 52 10
135 10 83 0 135 -4 135 -10z m-5304 -39 c-13 -20 -26 -11 -26 16 0 25 1 26 16
11 9 -9 13 -21 10 -27z m67 2 c-4 -10 -9 -11 -19 -2 -11 9 -12 15 -3 26 14 17
31 -1 22 -24z m5757 22 c11 -13 8 -15 -14 -15 -25 0 -33 10 -19 23 10 11 19 8
33 -8z m-3511 -32 c-15 -18 -34 -1 -25 22 5 14 9 15 21 5 12 -10 13 -16 4 -27z
m71 12 c0 -14 -4 -25 -9 -25 -12 0 -23 29 -15 41 10 18 24 9 24 -16z m3381 7
c19 -18 19 -19 0 -36 -18 -16 -19 -16 -23 18 -5 42 -4 42 23 18z m-461 -2 c0
-6 -52 -10 -136 -10 -87 0 -133 4 -129 10 4 6 60 10 136 10 79 0 129 -4 129
-10z m-2390 -150 c0 -143 -1 -150 -20 -150 -19 0 -20 7 -20 143 0 79 3 147 7
150 3 4 12 7 20 7 10 0 13 -32 13 -150z m40 0 c0 -127 -2 -150 -15 -150 -13 0
-15 23 -15 150 0 127 2 150 15 150 13 0 15 -23 15 -150z m50 0 c0 -127 -2
-150 -15 -150 -13 0 -15 23 -15 150 0 127 2 150 15 150 13 0 15 -23 15 -150z
m50 0 c0 -127 -2 -150 -15 -150 -13 0 -15 23 -15 150 0 127 2 150 15 150 13 0
15 -23 15 -150z m50 0 c0 -127 -2 -150 -15 -150 -13 0 -15 23 -15 150 0 127 2
150 15 150 13 0 15 -23 15 -150z m40 0 c0 -113 -3 -150 -12 -150 -11 0 -15
136 -8 298 0 1 5 2 10 2 6 0 10 -57 10 -150z m50 0 c0 -127 -2 -150 -15 -150
-13 0 -15 23 -15 150 0 127 2 150 15 150 13 0 15 -23 15 -150z m48 -3 c2 -126
0 -147 -13 -147 -13 0 -15 22 -15 151 0 116 3 150 13 147 9 -4 13 -45 15 -151z
m49 0 c1 -139 1 -147 -18 -147 -18 0 -19 9 -19 151 0 138 1 150 18 147 15 -3
17 -19 19 -151z m43 3 c0 -127 -2 -150 -15 -150 -13 0 -15 23 -15 150 0 127 2
150 15 150 13 0 15 -23 15 -150z m50 0 c0 -127 -2 -150 -15 -150 -13 0 -15 23
-15 150 0 127 2 150 15 150 13 0 15 -23 15 -150z m50 0 c0 -127 -2 -150 -15
-150 -13 0 -15 23 -15 150 0 127 2 150 15 150 13 0 15 -23 15 -150z m48 -3 c2
-126 0 -147 -13 -147 -13 0 -15 22 -15 151 0 116 3 150 13 147 9 -4 13 -45 15
-151z m42 3 c0 -127 -2 -150 -15 -150 -13 0 -15 23 -15 143 0 79 3 147 7 150
19 20 23 -6 23 -143z m50 0 c0 -127 -2 -150 -15 -150 -13 0 -15 23 -15 150 0
127 2 150 15 150 13 0 15 -23 15 -150z m50 0 c0 -127 -2 -150 -15 -150 -13 0
-15 23 -15 150 0 127 2 150 15 150 13 0 15 -23 15 -150z m40 0 c0 -127 -2
-150 -15 -150 -13 0 -15 23 -15 150 0 127 2 150 15 150 13 0 15 -23 15 -150z
m-3622 122 c2 -7 -7 -12 -23 -12 -24 0 -26 2 -15 15 14 17 31 16 38 -3z m2320
-9 c2 -8 -6 -13 -22 -13 -25 0 -33 10 -19 24 10 10 36 3 41 -11z m2942 -3 c0
-6 -52 -10 -135 -10 -83 0 -135 4 -135 10 0 6 52 10 135 10 83 0 135 -4 135
-10z m518 -6 c-9 -9 -21 -13 -27 -10 -20 13 -11 26 16 26 25 0 26 -1 11 -16z
m-40 -41 c-10 -12 -13 -12 -20 1 -13 23 0 40 18 25 11 -9 12 -15 2 -26z m72
16 c0 -17 -4 -19 -22 -13 -19 6 -21 5 -11 -8 15 -17 7 -28 -19 -28 -25 0 -23
9 9 42 32 33 43 35 43 7z m-5910 -299 l0 -310 -155 0 -155 0 0 305 0 305 65 0
65 0 0 -294 c0 -186 4 -297 10 -301 7 -4 10 96 10 294 l0 300 68 4 c37 2 73 4
80 5 9 2 12 -66 12 -308z m5591 215 c-1 -38 -4 -71 -6 -73 -2 -2 -49 -6 -104
-9 l-101 -5 0 74 c0 41 3 78 7 82 4 4 52 5 107 4 l100 -3 -3 -70z m180 53 c0
-13 2 -46 3 -75 l1 -52 -83 -3 c-46 -2 -85 -1 -86 2 -2 3 -1 38 2 78 l4 72 79
0 c75 0 79 -1 80 -22z m106 -65 c-16 -16 -18 -16 -34 0 -16 16 -15 17 17 17
32 0 33 -1 17 -17z m-38 -16 c8 -10 7 -17 -1 -25 -19 -19 -28 -14 -28 13 0 27
12 32 29 12z m67 -22 c-5 -14 -9 -15 -21 -5 -12 10 -13 16 -4 27 15 18 34 1
25 -22z m-28 -23 c2 -7 -7 -12 -23 -12 -24 0 -26 2 -15 15 14 17 31 16 38 -3z
m-1838 -122 l0 -120 -35 0 -35 0 0 113 c0 63 3 117 7 120 3 4 19 7 35 7 l28 0
0 -120z m80 -3 l0 -123 -35 4 -35 4 0 112 c0 62 3 116 7 119 3 4 19 7 35 7
l28 0 0 -123z m-4033 96 c-16 -16 -18 -16 -34 0 -16 16 -15 17 17 17 32 0 33
-1 17 -17z m5503 -35 c0 -89 0 -88 -111 -88 l-99 0 0 65 0 65 105 0 105 0 0
-42z m180 -23 l0 -65 -85 0 -85 0 0 65 0 65 85 0 85 0 0 -65z m-5721 19 c-16
-19 -29 -17 -29 4 0 26 11 34 27 21 10 -9 10 -15 2 -25z m71 18 c0 -26 -11
-34 -27 -21 -10 9 -10 15 -2 25 16 19 29 17 29 -4z m3703 -19 c4 -3 2 -12 -4
-20 -9 -10 -15 -10 -25 -2 -8 6 -11 15 -8 20 6 11 28 12 37 2z m-3735 -21 c2
-7 -6 -12 -17 -12 -21 0 -27 11 -14 24 9 9 26 2 31 -12z m3698 -31 c-13 -20
-26 -11 -26 16 0 25 1 26 16 11 9 -9 13 -21 10 -27z m60 -9 c-4 -3 -11 -1 -18
6 -8 8 -8 15 3 28 13 16 14 16 17 -5 2 -13 1 -25 -2 -29z m-1026 -16 c0 -79
-5 -86 -56 -86 l-44 0 0 70 0 70 50 0 50 0 0 -54z m81 24 c3 -114 6 -105 -34
-108 l-37 -3 0 70 0 71 35 0 c32 0 35 -3 36 -30z m829 15 c0 -13 -51 -15 -398
-15 -348 0 -399 2 -399 15 0 13 51 15 399 15 347 0 398 -2 398 -15z m89 -46
c-7 -4 -18 -5 -26 -2 -10 4 -11 9 -2 19 9 11 15 12 26 3 11 -9 11 -14 2 -20z
m-1009 -150 l0 -60 -42 3 -43 3 -3 58 -3 57 46 0 45 0 0 -61z m93 49 c-2 -5
-3 -30 -3 -58 l0 -50 -34 0 c-39 0 -47 17 -39 80 6 40 7 41 42 38 20 -2 35 -6
34 -10z m1137 -105 l0 -94 -32 3 -33 3 -3 84 c-2 46 -1 90 2 96 2 7 17 10 35
7 l31 -4 0 -95z m80 4 l0 -94 -32 1 -33 1 -3 93 -3 92 36 0 35 0 0 -93z
m-2182 -64 c-2 -66 -7 -98 -15 -101 -10 -3 -13 21 -13 97 0 84 3 101 15 101
13 0 15 -15 13 -97z m42 -4 c0 -76 -3 -100 -12 -97 -9 3 -14 35 -16 101 -2 82
0 97 13 97 12 0 15 -17 15 -101z m48 4 c-2 -66 -7 -98 -15 -101 -10 -3 -13 21
-13 97 0 84 3 101 15 101 13 0 15 -15 13 -97z m42 -4 c0 -76 -3 -100 -12 -97
-9 3 -14 35 -16 101 -2 82 0 97 13 97 12 0 15 -17 15 -101z m50 1 c0 -82 -3
-100 -15 -100 -12 0 -15 18 -15 100 0 82 3 100 15 100 12 0 15 -18 15 -100z
m48 3 c-2 -63 -7 -98 -15 -100 -8 -3 -13 24 -15 92 -2 53 -1 99 1 101 2 2 10
4 18 4 11 0 13 -20 11 -97z m49 0 c-2 -80 -5 -98 -17 -98 -12 0 -16 19 -18 98
-3 90 -1 97 17 97 18 0 19 -7 18 -97z m43 -4 c0 -76 -3 -100 -12 -97 -9 3 -14
35 -16 101 -2 82 0 97 13 97 12 0 15 -17 15 -101z m58 4 c-3 -84 -6 -98 -20
-101 -16 -3 -18 7 -18 97 0 95 1 101 20 101 20 0 21 -5 18 -97z m1506 58 c3
-5 0 -14 -8 -20 -10 -8 -16 -8 -25 3 -9 11 -9 15 1 19 20 8 26 8 32 -2z m36
-36 c0 -19 -20 -29 -32 -17 -8 8 -7 16 2 26 14 17 30 12 30 -9z m-75 -5 c0 -7
-6 -15 -12 -17 -8 -3 -13 4 -13 17 0 13 5 20 13 18 6 -3 12 -11 12 -18z m41
-21 c9 -16 -12 -33 -31 -25 -14 5 -15 9 -5 21 15 18 26 19 36 4z m-958 -21
c-3 -7 -11 -13 -18 -13 -7 0 -15 6 -17 13 -3 7 4 12 17 12 13 0 20 -5 18 -12z
m902 -9 c0 -6 -4 -7 -10 -4 -5 3 -10 11 -10 16 0 6 5 7 10 4 6 -3 10 -11 10
-16z m3773 -103 l136 -118 -127 -114 -127 -113 -132 0 -133 -1 0 113 0 112
116 123 c64 68 120 122 124 120 5 -2 69 -56 143 -122z m-4714 68 c-16 -19 -29
-17 -29 4 0 26 11 34 27 21 10 -9 10 -15 2 -25z m67 1 c-5 -14 -9 -15 -21 -5
-12 10 -13 16 -4 27 15 18 34 1 25 -22z m-1796 -45 l0 -50 -70 0 -70 0 0 50 0
50 70 0 70 0 0 -50z m140 0 l0 -50 -60 0 -60 0 0 50 0 50 60 0 60 0 0 -50z
m1628 22 c2 -7 -7 -12 -23 -12 -24 0 -26 2 -15 15 14 17 31 16 38 -3z m6 -71
c9 -15 -23 -36 -36 -23 -5 5 -7 15 -4 21 9 13 33 14 40 2z m-1774 -61 l0 -40
-70 0 -70 0 0 40 0 40 70 0 70 0 0 -40z m138 3 l-3 -38 -57 -3 -58 -3 0 41 0
40 61 0 60 0 -3 -37z m1597 27 c10 -16 -16 -43 -28 -31 -11 11 -2 41 12 41 5
0 13 -5 16 -10z m65 -10 c0 -11 -4 -20 -9 -20 -14 0 -23 18 -16 30 10 17 25
11 25 -10z m-31 -24 c9 -11 8 -15 -5 -20 -21 -8 -34 1 -27 19 7 19 17 19 32 1z
m-2029 -120 l0 -63 -224 -8 c-124 -4 -230 -4 -235 0 -6 3 -11 35 -11 71 l0 64
235 0 235 0 0 -64z m536 14 c2 -87 25 -80 -267 -80 l-259 0 0 65 0 65 263 -2
262 -3 1 -45z m5770 -2 c-3 -29 -6 -74 -6 -101 l0 -47 -217 2 -217 3 3 50 c1
28 4 51 6 53 2 2 83 6 179 9 l176 6 33 38 c17 20 36 38 41 38 5 1 6 -23 2 -51z
m-5418 -30 c-3 -7 -13 -13 -23 -13 -10 0 -20 6 -22 13 -3 7 5 12 22 12 17 0
25 -5 23 -12z m-49 -45 c-14 -17 -31 1 -22 24 4 10 9 11 19 2 11 -9 12 -15 3
-26z m71 12 c0 -26 -14 -33 -25 -15 -9 14 1 40 15 40 5 0 10 -11 10 -25z m-22
-32 c2 -8 -6 -13 -22 -13 -25 0 -33 10 -19 24 10 10 36 3 41 -11z m-354 -43
c-1 -25 -2 -51 -3 -57 -1 -10 -108 -13 -501 -13 l-500 0 0 55 0 55 235 0 234
0 -6 -50 c-4 -34 -2 -50 6 -50 7 0 11 19 11 50 l0 49 148 4 c81 1 199 3 262 2
l115 0 -1 -45z m245 14 c-9 -11 -15 -12 -26 -3 -17 14 1 31 24 22 10 -4 11 -9
2 -19z m-2721 4 c-3 -7 -11 -13 -18 -13 -7 0 -15 6 -17 13 -3 7 4 12 17 12 13
0 20 -5 18 -12z m300 0 c-3 -7 -13 -13 -23 -13 -10 0 -20 6 -22 13 -3 7 5 12
22 12 17 0 25 -5 23 -12z m-339 -44 c-16 -19 -29 -17 -29 4 0 26 11 34 27 21
10 -9 10 -15 2 -25z m71 5 c0 -22 -13 -25 -29 -6 -8 10 -7 17 1 25 15 15 28 6
28 -19z m219 -6 c-15 -17 -32 -2 -23 21 5 13 9 14 20 5 11 -9 12 -15 3 -26z
m71 12 c0 -26 -14 -33 -25 -15 -9 14 1 40 15 40 5 0 10 -11 10 -25z m2366 14
c3 -6 -1 -18 -10 -27 -15 -15 -16 -14 -16 11 0 27 13 36 26 16z m64 -9 c0 -11
-4 -20 -9 -20 -14 0 -23 18 -16 30 10 17 25 11 25 -10z m-29 -43 c-5 -5 -17
-7 -26 -3 -14 5 -15 9 -5 21 10 12 16 13 27 4 9 -8 10 -16 4 -22z m5519 -62
l0 -95 -217 0 -218 0 3 95 3 95 215 0 214 0 0 -95z m260 90 c0 -2 -46 -45
-102 -95 -69 -61 -109 -90 -126 -90 -25 0 -25 1 -19 68 4 37 7 79 7 95 l0 27
120 0 c66 0 120 -2 120 -5z m-8210 -20 c11 -13 8 -15 -14 -15 -25 0 -33 10
-19 23 10 11 19 8 33 -8z"/>
<path d="M7240 6810 c-11 -11 -20 -28 -20 -38 0 -24 41 -62 66 -62 26 0 64 40
64 67 0 48 -73 70 -110 33z m70 1 c0 -5 -6 -14 -14 -20 -10 -8 -16 -8 -25 2
-6 8 -8 17 -4 20 9 10 43 8 43 -2z m-44 -50 c-13 -20 -26 -11 -26 16 0 25 1
26 16 11 9 -9 13 -21 10 -27z m67 2 c-3 -7 -9 -13 -13 -13 -16 0 -22 21 -9 36
14 17 31 0 22 -23z m-34 -34 c-7 -4 -18 -5 -26 -2 -10 4 -11 9 -2 19 9 11 15
12 26 3 11 -9 11 -14 2 -20z"/>
<path d="M8178 6645 c-5 -5 -8 -138 -8 -297 l0 -288 460 0 460 0 0 290 0 290
-117 0 c-65 0 -269 3 -453 6 -184 4 -338 3 -342 -1z m452 -295 l0 -280 -225 0
-225 0 0 280 0 280 225 0 225 0 0 -280z m230 145 l0 -135 -105 0 -105 0 0 135
0 135 105 0 105 0 0 -135z m210 0 l0 -135 -94 0 -93 0 -7 53 c-3 28 -6 89 -6
135 l0 82 100 0 100 0 0 -135z m-208 -285 l3 -140 -107 0 -108 0 0 140 0 140
104 0 105 0 3 -140z m208 0 l0 -140 -95 0 -95 0 0 140 0 140 95 0 95 0 0 -140z"/>
<path d="M8617 5764 c-4 -4 -7 -117 -7 -250 l0 -243 186 -3 c120 -2 188 1 190
7 3 6 3 118 2 250 l-3 240 -181 3 c-99 1 -183 -1 -187 -4z m363 -249 l0 -235
-175 0 -175 0 0 235 0 235 175 0 175 0 0 -235z"/>
<path d="M9337 5208 c-47 -17 -49 -92 -1 -104 35 -9 72 3 79 27 17 53 -25 95
-78 77z m41 -20 c-3 -7 -11 -13 -18 -13 -7 0 -15 6 -17 13 -3 7 4 12 17 12 13
0 20 -5 18 -12z m-39 -45 c-15 -18 -34 -1 -25 22 5 14 9 15 21 5 12 -10 13
-16 4 -27z m67 2 c-5 -14 -9 -15 -21 -5 -12 10 -13 16 -4 27 15 18 34 1 25
-22z m-26 -20 c11 -13 8 -15 -20 -15 -28 0 -31 2 -20 15 7 8 16 15 20 15 4 0
13 -7 20 -15z"/>
<path d="M9582 5064 c-29 -20 -31 -79 -3 -94 69 -36 135 36 81 90 -24 24 -48
25 -78 4z m58 -13 c0 -19 -22 -23 -38 -7 -15 15 -14 16 11 16 15 0 27 -4 27
-9z m-41 -24 c8 -10 7 -17 -2 -26 -9 -9 -6 -11 12 -9 13 2 26 -3 28 -9 6 -17
-27 -16 -49 1 -18 14 -25 56 -9 56 5 0 13 -6 20 -13z m65 4 c4 -5 3 -16 0 -25
-5 -12 -10 -14 -20 -6 -7 7 -10 18 -7 26 6 16 19 18 27 5z"/>
<path d="M8752 4253 l3 -248 385 0 385 0 3 248 2 247 -390 0 -390 0 2 -247z
m768 2 l0 -235 -375 0 -375 0 0 235 0 235 375 0 375 0 0 -235z"/>
<path d="M8696 3594 c-36 -35 -7 -104 42 -104 29 0 62 34 62 63 0 49 -70 76
-104 41z m64 -3 c0 -5 -6 -14 -14 -20 -10 -8 -16 -8 -25 2 -6 8 -8 17 -4 20 9
10 43 8 43 -2z m21 -54 c-18 -18 -38 8 -21 28 12 15 14 15 23 0 6 -11 5 -21
-2 -28z m-66 13 c0 -7 -6 -15 -12 -17 -8 -3 -13 4 -13 17 0 13 5 20 13 18 6
-3 12 -11 12 -18z m41 -21 c9 -16 -10 -31 -30 -23 -13 5 -14 9 -5 20 14 17 25
18 35 3z"/>
<path d="M8230 3225 l0 -255 760 0 760 0 0 255 0 255 -760 0 -760 0 0 -255z
m750 130 l0 -115 -93 0 c-52 0 -216 -3 -365 -7 l-272 -6 0 121 0 122 365 0
365 0 0 -115z m760 6 c0 -86 -3 -110 -15 -114 -8 -4 -174 -6 -368 -7 l-354 0
-6 52 c-4 29 -7 81 -7 116 l0 62 375 0 375 0 0 -109z m-756 -177 c3 -26 6 -82
6 -125 l0 -79 -370 0 -370 0 0 120 0 120 318 3 c174 1 338 3 363 5 l46 2 7
-46z m754 -76 l-3 -123 -367 -3 -368 -2 0 124 0 125 370 1 371 0 -3 -122z"/>
<path d="M8230 2120 l0 -520 755 0 755 0 0 520 0 520 -755 0 -755 0 0 -520z
m1498 3 l2 -503 -745 0 -745 0 0 505 0 505 743 -2 742 -3 3 -502z"/>
<path d="M8892 2432 l-71 -138 -138 -18 c-76 -10 -150 -20 -164 -23 -28 -5
-41 10 159 -178 l52 -50 -25 -139 c-14 -77 -25 -147 -25 -156 0 -12 35 1 145
57 l145 74 140 -72 c77 -40 143 -69 146 -66 4 3 -5 73 -20 154 l-26 148 117
111 c136 128 143 113 -70 140 l-137 17 -72 139 c-40 76 -75 138 -79 138 -4 0
-38 -62 -77 -138z m152 -22 c37 -71 71 -130 76 -130 15 0 233 -30 265 -37 30
-6 30 -6 -79 -108 l-110 -103 25 -146 c14 -80 23 -146 20 -146 -2 0 -64 30
-138 67 l-133 68 -135 -68 c-74 -37 -137 -67 -138 -67 -2 0 8 66 22 146 l25
145 -108 101 c-90 85 -105 103 -90 109 11 3 79 14 152 24 l133 18 65 128 c35
71 68 129 72 129 5 0 39 -58 76 -130z"/>
<path d="M7191 2495 c-19 -33 -20 -36 -3 -42 9 -4 20 -11 25 -17 9 -14 29 14
22 32 -3 8 -5 25 -5 38 0 34 -15 30 -39 -11z m19 -10 c0 -8 -4 -15 -10 -15 -5
0 -7 7 -4 15 4 8 8 15 10 15 2 0 4 -7 4 -15z"/>
<path d="M7290 2511 c0 -10 -3 -33 -6 -50 -4 -20 -3 -31 5 -31 6 0 11 15 11
33 l1 32 15 -35 16 -35 18 40 19 40 0 -37 c1 -21 4 -38 9 -38 4 0 5 22 4 50
-2 27 -8 50 -12 50 -4 0 -14 -17 -23 -37 l-14 -37 -12 37 c-13 39 -31 50 -31
18z"/>
<path d="M7484 2507 c-3 -9 -4 -28 -2 -44 3 -26 6 -28 53 -29 28 -1 40 1 28 3
-31 6 -29 23 2 23 27 0 30 6 16 29 -6 8 -19 12 -36 9 -15 -3 -32 0 -41 9 -12
13 -15 13 -20 0z m36 -42 c0 -14 -4 -25 -10 -25 -5 0 -10 11 -10 25 0 14 5 25
10 25 6 0 10 -11 10 -25z m50 15 c0 -5 -7 -10 -15 -10 -8 0 -15 5 -15 10 0 6
7 10 15 10 8 0 15 -4 15 -10z"/>
<path d="M7405 2480 c-8 -26 11 -50 39 -49 19 0 19 1 -4 12 l-25 11 28 4 c29
4 33 12 15 30 -19 19 -46 14 -53 -8z m45 0 c0 -5 -7 -10 -15 -10 -8 0 -15 5
-15 10 0 6 7 10 15 10 8 0 15 -4 15 -10z"/>
<path d="M7600 2465 c0 -19 5 -35 10 -35 6 0 10 13 10 29 0 16 6 32 13 34 6 3
2 6 -10 6 -20 1 -23 -4 -23 -34z"/>
<path d="M7187 2353 c-4 -3 -7 -26 -7 -50 0 -40 2 -43 28 -43 36 0 52 16 52
52 0 21 -6 31 -26 38 -30 12 -38 12 -47 3z m58 -33 c7 -23 -10 -50 -31 -50 -9
0 -14 12 -14 35 0 28 4 35 19 35 11 0 23 -9 26 -20z"/>
<path d="M7280 2315 c-18 -22 -1 -50 31 -50 20 0 24 5 24 30 0 23 -5 31 -21
33 -11 2 -27 -4 -34 -13z m47 -11 c8 -21 -13 -42 -28 -27 -13 13 -5 43 11 43
6 0 13 -7 17 -16z"/>
<path d="M7363 2295 c12 -40 23 -44 33 -12 l7 22 10 -22 c14 -32 22 -29 34 12
6 19 8 35 3 35 -4 0 -11 -10 -14 -22 l-7 -23 -9 23 c-11 25 -30 21 -31 -6 0
-13 -3 -12 -11 6 -17 34 -27 26 -15 -13z"/>
<path d="M7471 2291 c1 -36 1 -36 8 -6 3 17 13 30 21 30 8 0 18 -13 22 -30 6
-29 6 -29 5 5 -2 31 -5 35 -29 36 -26 1 -28 -2 -27 -35z"/>
<path d="M7030 875 l0 -165 175 0 175 0 0 165 0 165 -175 0 -175 0 0 -165z
m340 0 l0 -155 -165 0 -165 0 0 155 0 155 165 0 165 0 0 -155z"/>
<path d="M7185 971 c-17 -40 -36 -51 -87 -51 -36 0 -35 -9 3 -46 28 -27 30
-33 25 -76 -6 -55 1 -59 52 -28 l33 20 39 -20 c22 -11 42 -20 46 -20 4 0 4 22
0 49 -6 48 -5 50 29 76 41 32 38 45 -11 45 -36 0 -77 32 -89 71 -9 29 -20 23
-40 -20z m51 -26 c16 -30 23 -35 56 -35 44 0 48 -13 12 -37 -23 -15 -26 -22
-21 -60 2 -24 3 -43 1 -43 -2 0 -19 7 -38 16 -31 15 -36 15 -66 0 -18 -9 -35
-16 -37 -16 -3 0 -2 17 2 38 5 32 2 41 -19 62 -35 32 -33 40 9 40 31 0 38 5
52 35 9 19 20 35 23 35 4 0 15 -16 26 -35z"/>
<path d="M7580 840 l0 -140 425 0 425 0 0 140 0 140 -425 0 -425 0 0 -140z
m403 95 c-14 -29 -23 -35 -60 -41 -24 -3 -43 -9 -43 -13 0 -3 13 -18 29 -33
26 -25 28 -31 21 -68 -8 -46 -8 -46 40 -21 34 19 36 19 74 -1 l39 -20 -7 45
c-6 41 -5 46 24 70 36 31 37 37 8 37 -54 0 -65 9 -96 73 -2 4 89 7 202 7 l206
0 0 -130 0 -130 -408 0 c-225 0 -411 2 -413 4 -2 2 -3 61 -1 130 l3 126 199 0
200 0 -17 -35z m42 -25 c12 -24 22 -30 47 -30 l31 0 -22 -24 c-17 -18 -22 -33
-19 -55 5 -34 1 -36 -35 -20 -19 9 -31 7 -57 -6 l-33 -17 7 36 c6 31 3 39 -21
61 l-28 24 30 1 c36 0 48 8 64 38 15 28 17 28 36 -8z"/>
<path d="M5756 6754 c-44 -43 12 -122 67 -93 28 15 37 28 37 56 0 30 -26 53
-60 53 -16 0 -36 -7 -44 -16z m62 -6 c-3 -7 -11 -13 -18 -13 -7 0 -15 6 -17
13 -3 7 4 12 17 12 13 0 20 -5 18 -12z m-39 -44 c-16 -19 -29 -17 -29 4 0 26
11 34 27 21 10 -9 10 -15 2 -25z m71 5 c0 -22 -13 -25 -29 -6 -8 10 -7 17 1
25 15 15 28 6 28 -19z m-30 -24 c11 -13 8 -15 -20 -15 -28 0 -31 2 -20 15 7 8
16 15 20 15 4 0 13 -7 20 -15z"/>
<path d="M6640 5861 c0 -16 -3 -36 -6 -45 -3 -9 -1 -16 5 -16 6 0 11 15 12 33
l1 32 10 -32 c6 -18 15 -33 19 -33 5 0 15 15 23 33 l14 32 1 -32 c1 -18 6 -33
12 -33 6 0 8 7 5 16 -3 9 -6 29 -6 45 0 38 -14 37 -31 -3 l-13 -32 -13 32
c-16 40 -33 41 -33 3z"/>
<path d="M6837 5872 c-3 -4 -2 -22 0 -40 4 -26 10 -33 23 -29 9 2 25 0 34 -5
9 -5 22 -6 28 -1 9 5 5 9 -12 14 -23 6 -23 7 -3 8 26 1 35 13 27 35 -12 32
-64 11 -64 -26 0 -10 -4 -18 -10 -18 -14 0 -12 48 2 52 8 3 6 7 -5 11 -9 3
-18 3 -20 -1z m88 -22 c3 -5 -3 -10 -15 -10 -12 0 -18 5 -15 10 3 6 10 10 15
10 5 0 12 -4 15 -10z"/>
<path d="M6762 5858 c-19 -19 -14 -46 9 -59 15 -8 24 -8 32 0 8 8 5 11 -11 11
-12 0 -22 4 -22 9 0 5 8 7 19 4 24 -6 36 13 21 32 -15 18 -32 19 -48 3z m33
-8 c3 -5 -3 -10 -15 -10 -12 0 -18 5 -15 10 3 6 10 10 15 10 5 0 12 -4 15 -10z"/>
<path d="M6950 5835 c0 -19 5 -35 10 -35 6 0 10 10 10 23 0 13 5 28 12 35 9 9
7 12 -10 12 -18 0 -22 -6 -22 -35z"/>
<path d="M6628 5703 c-14 -4 -18 -15 -18 -49 0 -24 5 -44 10 -44 6 0 10 3 10
8 0 4 10 12 23 17 46 20 24 79 -25 68z m30 -35 c-2 -13 -7 -23 -13 -23 -5 0
-11 10 -13 23 -2 15 2 22 13 22 11 0 15 -7 13 -22z"/>
<path d="M6530 5681 c0 -35 12 -51 36 -51 21 0 24 5 24 35 0 19 -4 35 -10 35
-5 0 -10 -14 -10 -31 0 -17 -4 -28 -10 -24 -5 3 -10 17 -10 31 0 13 -4 24 -10
24 -5 0 -10 -9 -10 -19z"/>
<path d="M4745 1550 c-5 -9 -1 -10 14 -5 28 9 29 -25 1 -50 -28 -26 -25 -35
13 -34 17 1 24 3 15 6 -22 6 -23 17 -3 33 22 18 15 54 -12 58 -11 2 -24 -2
-28 -8z"/>
<path d="M4860 1541 c0 -10 -3 -33 -6 -50 -4 -20 -3 -31 5 -31 6 0 11 15 11
33 l1 32 16 -35 15 -35 19 40 18 40 1 -37 c0 -21 5 -38 11 -38 6 0 8 7 5 16
-3 9 -6 31 -6 50 0 44 -14 43 -33 -3 l-14 -37 -12 37 c-13 39 -31 50 -31 18z"/>
<path d="M5250 1522 c0 -41 14 -62 42 -62 23 0 39 31 36 70 -3 44 -18 37 -18
-9 0 -24 -5 -41 -14 -44 -20 -8 -26 2 -26 45 0 21 -4 38 -10 38 -5 0 -10 -17
-10 -38z"/>
<path d="M5046 1542 c-9 -14 10 -76 24 -80 12 -4 13 -2 3 9 -15 16 -17 49 -3
49 6 0 10 4 10 9 0 12 -28 22 -34 13z"/>
<path d="M4988 1529 c-22 -13 -23 -55 -2 -63 32 -12 48 -5 19 9 l-30 13 27 1
c34 1 43 15 22 35 -8 9 -16 16 -17 16 -1 0 -10 -5 -19 -11z m32 -19 c0 -5 -9
-10 -21 -10 -11 0 -17 5 -14 10 3 6 13 10 21 10 8 0 14 -4 14 -10z"/>
<path d="M5107 1529 c-34 -19 -14 -70 28 -68 18 0 17 2 -5 12 l-25 11 28 4
c15 2 27 10 27 17 0 21 -32 35 -53 24z m33 -19 c0 -5 -7 -10 -15 -10 -8 0 -15
5 -15 10 0 6 7 10 15 10 8 0 15 -4 15 -10z"/>
<path d="M5170 1499 c0 -21 5 -39 10 -39 6 0 10 13 10 29 0 16 6 31 12 33 7 3
2 7 -10 10 -20 6 -22 3 -22 -33z"/>
<path d="M5358 1532 c-14 -3 -18 -14 -18 -48 0 -24 5 -44 10 -44 6 0 10 6 10
14 0 9 7 12 19 9 13 -3 23 2 30 15 20 37 -6 64 -51 54z m40 -34 c-2 -13 -10
-23 -18 -23 -8 0 -16 10 -18 23 -3 17 2 22 18 22 16 0 21 -5 18 -22z"/>
<path d="M4152 5199 c-39 -15 -48 -73 -16 -100 35 -29 104 1 104 46 0 38 -49
68 -88 54z m46 -21 c-3 -7 -13 -13 -23 -13 -10 0 -20 6 -22 13 -3 7 5 12 22
12 17 0 25 -5 23 -12z m-43 -33 c0 -10 -6 -20 -12 -22 -8 -3 -13 5 -13 22 0
17 5 25 13 23 6 -3 12 -13 12 -23z m69 -9 c-5 -13 -9 -14 -20 -5 -11 9 -12 15
-3 26 15 17 32 2 23 -21z m-26 -24 c2 -7 -7 -12 -23 -12 -24 0 -26 2 -15 15
14 17 31 16 38 -3z"/>
<path d="M4350 3350 l0 -130 135 0 135 0 0 130 0 130 -135 0 -135 0 0 -130z
m260 0 l0 -121 -122 3 -123 3 -3 118 -3 117 126 0 125 0 0 -120z"/>
<path d="M4434 3441 c-44 -27 -60 -77 -40 -124 17 -42 46 -59 98 -61 30 0 45
6 69 30 53 53 35 139 -33 163 -43 15 -58 14 -94 -8z m121 -26 c27 -26 32 -63
13 -98 -18 -34 -39 -46 -81 -47 -51 0 -87 35 -87 85 0 78 100 116 155 60z"/>
<path d="M4936 2957 c-29 -21 -18 -79 18 -96 25 -12 31 -11 55 6 14 11 27 30
29 42 7 48 -59 79 -102 48z m64 -5 c0 -19 -23 -32 -37 -21 -20 17 -15 29 12
29 14 0 25 -4 25 -8z m-41 -25 c8 -10 7 -17 -1 -25 -19 -19 -28 -14 -28 13 0
27 12 32 29 12z m66 -28 c-5 -7 -11 -6 -21 2 -11 9 -12 15 -2 26 10 12 13 12
20 -1 5 -9 6 -21 3 -27z m-27 -17 c2 -7 -7 -12 -23 -12 -24 0 -26 2 -15 15 14
17 31 16 38 -3z"/>
<path d="M5692 2364 c-45 -31 -17 -104 40 -104 53 0 79 74 36 104 -12 9 -29
16 -38 16 -9 0 -26 -7 -38 -16z m55 -21 c-16 -16 -18 -16 -34 0 -16 16 -15 17
17 17 32 0 33 -1 17 -17z m-38 -16 c7 -9 7 -18 1 -25 -7 -9 -7 -9 2 -2 7 6 16
6 25 -1 18 -16 16 -29 -4 -29 -23 0 -53 29 -53 52 0 21 13 24 29 5z m71 -5 c0
-26 -11 -34 -27 -21 -10 9 -10 15 -2 25 16 19 29 17 29 -4z"/>
<path d="M2870 5010 c-12 -8 -11 -10 8 -10 29 0 29 -26 0 -57 l-21 -23 34 1
c19 1 26 3 17 6 -15 4 -15 6 0 33 14 23 14 31 3 44 -16 19 -21 19 -41 6z"/>
<path d="M2976 5004 c-10 -25 -7 -84 4 -84 6 0 10 12 11 28 l1 27 10 -27 c13
-37 23 -35 39 5 l12 32 7 -35 c7 -34 7 -34 9 13 1 56 -21 65 -36 15 l-10 -33
-16 38 c-18 41 -22 44 -31 21z"/>
<path d="M3168 4999 c-2 -6 -2 -26 0 -45 3 -24 9 -34 21 -33 10 0 11 2 4 6
-15 5 -18 50 -4 55 5 2 3 8 -4 15 -9 9 -15 9 -17 2z"/>
<path d="M3090 4970 c-14 -27 2 -51 34 -49 20 2 20 2 -1 6 -31 6 -29 23 3 23
19 0 25 5 22 18 -5 26 -44 27 -58 2z m40 0 c0 -5 -7 -10 -16 -10 -8 0 -12 5
-9 10 3 6 10 10 16 10 5 0 9 -4 9 -10z"/>
<path d="M3214 4976 c-12 -30 0 -51 31 -53 20 -1 23 0 8 4 -29 6 -30 23 -2 23
14 0 19 5 17 18 -4 22 -46 29 -54 8z m41 -6 c3 -5 -3 -10 -15 -10 -12 0 -18 5
-15 10 3 6 10 10 15 10 5 0 12 -4 15 -10z"/>
<path d="M3290 4955 c0 -19 5 -35 10 -35 6 0 10 10 10 23 0 13 5 28 12 35 9 9
7 12 -10 12 -18 0 -22 -6 -22 -35z"/>
<path d="M3360 4971 c0 -37 12 -51 41 -51 26 0 29 3 29 35 0 19 -4 35 -10 35
-5 0 -10 -13 -10 -30 0 -20 -5 -30 -15 -30 -10 0 -15 10 -15 30 0 17 -4 30
-10 30 -5 0 -10 -9 -10 -19z"/>
<path d="M3451 4938 c1 -29 3 -45 6 -35 3 10 14 17 28 17 15 0 26 7 30 20 9
27 -11 50 -41 50 -22 0 -24 -4 -23 -52z m47 14 c2 -14 -2 -22 -12 -22 -19 0
-29 17 -22 36 8 22 30 12 34 -14z"/>
<path d="M2555 4470 c-3 -5 -44 -10 -91 -10 l-84 0 0 -155 0 -155 85 0 85 0 0
-120 0 -120 -90 0 -90 0 0 -115 0 -115 90 0 89 0 3 -102 3 -103 173 -2 172 -2
0 54 0 54 30 -17 c27 -15 32 -16 57 -2 34 19 43 69 18 94 -21 21 -69 21 -86
-1 -12 -14 -15 46 -19 403 l-5 419 -167 3 c-106 1 -169 -1 -173 -8z m335 -495
l0 -485 -165 0 -165 0 0 485 0 485 165 0 165 0 0 -485z m-420 404 l0 -70 -37
3 -38 3 2 60 c1 33 2 63 2 68 1 4 17 7 36 7 l35 0 0 -71z m70 1 l0 -70 -30 0
c-33 0 -35 8 -24 94 6 40 10 46 30 46 23 0 24 -3 24 -70z m0 -150 l0 -70 -30
0 -30 0 0 64 c0 63 1 65 28 69 15 2 28 5 30 6 1 0 2 -30 2 -69z m-70 -6 l0
-65 -35 3 c-20 2 -35 6 -35 11 0 4 0 32 0 62 l0 55 35 0 35 0 0 -66z m-12
-366 l3 -38 -40 0 -41 0 0 41 0 40 38 -3 c35 -3 37 -5 40 -40z m82 2 c0 -39
-1 -40 -35 -40 -34 0 -35 1 -35 40 0 39 1 40 35 40 34 0 35 -1 35 -40z m-80
-116 l0 -55 -37 3 -38 3 -3 53 -3 52 40 0 41 0 0 -56z m80 1 l0 -55 -35 0 -35
0 0 55 0 55 35 0 35 0 0 -55z m452 -102 c18 -17 25 -53 9 -53 -17 0 -31 26
-21 38 7 9 7 9 -2 2 -12 -10 -38 4 -38 21 0 15 32 10 52 -8z m-52 -43 c-22
-14 -30 -12 -30 8 0 28 12 34 29 17 14 -14 14 -17 1 -25z m39 -14 c9 -11 8
-15 -6 -18 -30 -8 -46 2 -32 18 14 18 24 18 38 0z"/>
<path d="M2927 4222 c-29 -32 -21 -69 20 -91 52 -27 110 37 78 85 -19 30 -74
33 -98 6z m73 -1 c0 -12 -29 -23 -41 -15 -18 10 -9 24 16 24 14 0 25 -4 25 -9z
m-50 -51 c-17 -11 -31 6 -23 27 5 12 8 12 22 -2 14 -14 14 -17 1 -25z m70 15
c0 -28 -17 -34 -27 -9 -3 9 0 20 8 25 19 12 19 12 19 -16z m-36 -21 c25 -9 19
-24 -9 -24 -24 0 -32 10 -18 23 8 8 8 8 27 1z"/>
<path d="M2950 3963 c-39 -14 -53 -69 -24 -97 21 -22 67 -20 87 2 43 48 -3
117 -63 95z m37 -30 c-16 -16 -18 -16 -34 0 -16 16 -15 17 17 17 32 0 33 -1
17 -17z m-38 -40 c-15 -18 -34 -1 -25 22 5 14 9 15 21 5 12 -10 13 -16 4 -27z
m71 19 c0 -26 -11 -34 -27 -21 -10 9 -10 15 -2 25 16 19 29 17 29 -4z m-32
-40 c2 -7 -6 -12 -17 -12 -21 0 -27 11 -14 24 9 9 26 2 31 -12z"/>
<path d="M1850 3610 l0 -200 210 0 210 0 0 200 0 200 -210 0 -210 0 0 -200z
m410 0 l0 -190 -195 0 -195 0 0 190 0 190 195 0 195 0 0 -190z"/>
<path d="M1995 3756 c-37 -16 -83 -68 -91 -102 -18 -72 22 -154 90 -185 54
-25 92 -24 146 4 110 55 119 195 17 271 -33 25 -121 32 -162 12z m154 -24 c46
-34 65 -69 65 -121 0 -75 -41 -123 -119 -141 -101 -23 -199 67 -180 166 8 44
58 101 99 114 41 12 105 4 135 -18z"/>
<path d="M2530 3045 l0 -305 119 0 120 0 3 33 3 32 78 3 77 3 0 99 0 99 -77 3
c-53 2 -78 7 -79 16 -1 6 -2 82 -3 167 l-1 155 -120 0 -120 0 0 -305z m121
146 c-1 -80 -4 -148 -7 -153 -3 -4 -27 -8 -55 -8 l-49 0 0 155 0 156 56 -3 56
-3 -1 -144z m109 -6 l0 -155 -50 0 -50 0 0 63 c0 35 3 105 6 155 l7 92 43 0
44 0 0 -155z m-117 -177 c-2 -5 -3 -64 -3 -133 l0 -125 -50 0 -50 0 0 136 0
135 53 -3 c28 -2 51 -6 50 -10z m117 -123 l0 -135 -56 0 -57 0 7 77 c3 42 6
102 6 135 l0 58 50 0 50 0 0 -135z m84 68 c-3 -27 -7 -49 -8 -50 0 -1 -13 1
-28 4 -26 5 -28 9 -28 49 0 44 0 44 36 44 l35 0 -7 -47z m66 -4 c0 -49 -1 -50
-27 -47 -16 2 -27 6 -25 11 1 4 2 25 2 47 0 36 3 40 25 40 23 0 25 -3 25 -51z
m-70 -94 c0 -32 -2 -35 -30 -35 -28 0 -30 3 -30 35 0 32 2 35 30 35 28 0 30
-3 30 -35z m70 0 c0 -32 -2 -35 -30 -35 -28 0 -30 3 -30 35 0 32 2 35 30 35
28 0 30 -3 30 -35z"/>
<path d="M2340 3220 l0 -81 78 3 77 3 3 78 3 77 -81 0 -80 0 0 -80z m80 34 c0
-34 -1 -35 -32 -32 -54 5 -53 68 2 68 28 0 30 -3 30 -36z m60 1 c0 -28 -4 -35
-19 -35 -13 0 -20 9 -23 30 -5 34 -2 40 24 40 14 0 18 -8 18 -35z m-56 -61
c14 -36 7 -45 -31 -42 -33 3 -38 7 -41 31 -3 25 -1 27 31 27 23 0 37 -6 41
-16z m56 -14 c0 -23 -4 -30 -20 -30 -16 0 -20 7 -20 30 0 23 4 30 20 30 16 0
20 -7 20 -30z"/>
<path d="M2013 3089 c-53 -19 -51 -89 3 -109 21 -8 33 -7 53 6 26 17 26 17 9
-3 -10 -11 -18 -27 -18 -36 0 -12 -7 -15 -35 -10 -26 4 -41 1 -55 -12 -40 -36
-16 -98 38 -98 39 0 62 18 62 49 0 28 3 29 30 12 30 -19 74 8 78 48 3 28 5 29
41 26 31 -3 42 0 55 19 9 13 16 31 16 41 0 22 -38 58 -61 58 -27 0 -61 -34
-62 -63 -1 -18 -6 -26 -15 -22 -8 3 -25 5 -38 5 -21 0 -24 4 -19 20 8 25 -16
65 -42 72 -10 3 -28 1 -40 -3z m45 -21 c-3 -7 -13 -13 -23 -13 -10 0 -20 6
-22 13 -3 7 5 12 22 12 17 0 25 -5 23 -12z m-48 -48 c-17 -11 -31 6 -23 27 5
12 8 12 22 -2 14 -14 14 -17 1 -25z m70 13 c0 -25 -1 -26 -16 -11 -9 9 -13 21
-10 27 13 20 26 11 26 -16z m170 18 c0 -19 -22 -23 -38 -7 -15 15 -14 16 11
16 15 0 27 -4 27 -9z m-42 -33 c2 -9 -4 -18 -13 -21 -11 -5 -15 0 -15 19 0 28
23 29 28 2z m67 12 c3 -5 2 -17 -3 -26 -8 -14 -10 -14 -21 0 -13 15 -8 36 9
36 5 0 12 -4 15 -10z m-217 -28 c2 -7 -7 -12 -22 -12 -27 0 -35 15 -13 23 17
7 30 3 35 -11z m190 -19 c2 -8 -6 -13 -22 -13 -25 0 -33 10 -19 24 10 10 36 3
41 -11z m-105 -8 c-4 -15 -36 -12 -41 3 -3 9 3 13 19 10 13 -1 23 -7 22 -13z
m-43 -45 c-19 -12 -35 3 -26 26 6 17 8 17 24 0 15 -15 15 -18 2 -26z m70 15
c0 -27 -12 -32 -29 -12 -8 10 -7 17 1 25 19 19 28 14 28 -13z m-142 -27 c-3
-7 -11 -13 -18 -13 -7 0 -15 6 -17 13 -3 7 4 12 17 12 13 0 20 -5 18 -12z
m112 -3 c11 -13 8 -15 -14 -15 -25 0 -33 10 -19 23 10 11 19 8 33 -8z m-151
-42 c-15 -18 -34 -1 -25 22 5 14 9 15 21 5 12 -10 13 -16 4 -27z m71 12 c0
-27 -12 -32 -29 -12 -8 10 -7 17 1 25 19 19 28 14 28 -13z m-30 -30 c11 -13 8
-15 -14 -15 -25 0 -33 10 -19 23 10 11 19 8 33 -8z"/>
<path d="M2300 2980 l0 -90 -20 20 c-28 28 -64 25 -89 -6 -12 -15 -21 -33 -21
-40 0 -23 38 -54 65 -54 14 0 34 9 45 20 17 17 33 20 110 20 l90 0 0 110 0
110 -90 0 -90 0 0 -90z m170 35 c0 -43 -1 -45 -30 -45 -29 0 -30 2 -30 43 0
31 -3 38 -10 27 -5 -8 -10 -27 -10 -42 0 -25 -4 -28 -35 -28 -36 0 -37 2 -37
45 0 14 0 30 1 35 0 6 34 10 76 10 l75 0 0 -45z m-99 -65 c16 0 19 -7 19 -46
l0 -45 -37 3 c-36 3 -36 4 -35 46 1 57 0 55 18 48 9 -3 24 -6 35 -6z m97 -42
c-3 -40 -5 -43 -35 -46 -33 -3 -33 -3 -33 42 0 46 0 46 36 46 l35 0 -3 -42z
m-219 -14 c-9 -11 -15 -11 -25 -3 -19 15 -9 28 16 22 16 -4 18 -8 9 -19z m-33
-15 c3 -6 -1 -18 -10 -27 -15 -15 -16 -14 -16 11 0 27 13 36 26 16z m65 -2
c-1 -4 -1 -15 -1 -24 0 -16 -1 -16 -16 -1 -9 9 -13 21 -9 28 7 12 27 10 26 -3z
m-30 -50 c-5 -5 -17 -7 -26 -3 -14 5 -15 9 -5 21 10 12 16 13 27 4 9 -8 10
-16 4 -22z"/>
<path d="M1500 2685 l0 -115 180 0 180 0 0 115 0 115 -180 0 -180 0 0 -115z
m180 65 l0 -41 -82 3 -83 3 0 30 c0 17 1 33 3 38 2 4 39 7 83 7 l79 0 0 -40z
m170 -2 l0 -43 -75 0 -75 0 0 42 0 43 75 0 75 0 0 -42z m-170 -113 l0 -55 -80
0 -80 0 0 55 0 55 80 0 80 0 0 -55z m170 0 l0 -55 -75 0 -75 0 0 55 0 55 75 0
75 0 0 -55z"/>
<path d="M2550 2475 l0 -54 -87 -3 -88 -3 0 -115 0 -115 88 -3 87 -3 0 -324 0
-325 175 0 175 0 0 320 c0 314 0 320 19 310 44 -23 101 5 101 50 0 26 -34 60
-62 60 -12 0 -30 -7 -40 -17 -17 -16 -18 -11 -18 130 l0 147 -175 0 -175 0 0
-55z m338 -447 l2 -488 -165 0 -165 0 0 490 0 490 163 -2 162 -3 3 -487z
m-438 327 c0 -54 0 -55 -30 -55 -30 0 -30 1 -30 55 0 54 0 55 30 55 30 0 30
-1 30 -55z m88 -2 l3 -53 -35 0 c-34 0 -34 0 -38 51 -1 28 -1 53 2 55 2 3 18
4 35 2 29 -3 30 -5 33 -55z m-84 -104 c8 -50 3 -59 -35 -59 -28 0 -29 1 -29
50 0 48 1 50 29 50 26 0 29 -4 35 -41z m64 35 c20 -6 23 -12 20 -48 -3 -38 -5
-41 -35 -44 l-33 -3 0 50 c0 53 4 56 48 45z m456 -33 c3 -5 0 -14 -8 -20 -10
-8 -16 -8 -25 3 -9 11 -9 15 1 19 20 8 26 8 32 -2z m29 -48 c-3 -7 -9 -13 -13
-13 -16 0 -22 21 -9 36 14 17 31 0 22 -23z m-67 16 c3 -6 -1 -18 -10 -27 -15
-15 -16 -14 -16 11 0 27 13 36 26 16z m35 -52 c-5 -5 -17 -7 -26 -3 -14 5 -15
9 -5 21 10 12 16 13 27 4 9 -8 10 -16 4 -22z"/>
<path d="M2140 1910 l0 -140 150 0 150 0 0 140 0 140 -150 0 -150 0 0 -140z
m280 0 l0 -130 -135 0 -135 0 0 123 c0 68 3 127 7 130 3 4 64 7 135 7 l128 0
0 -130z"/>
<path d="M2219 1971 c-64 -64 -20 -161 73 -161 31 0 46 7 70 30 27 28 30 36
25 73 -12 85 -107 118 -168 58z m117 1 c50 -40 53 -96 7 -132 -35 -27 -75 -25
-112 6 -41 34 -42 75 -2 115 34 33 75 38 107 11z"/>
<path d="M1800 1305 l0 -135 325 0 325 0 0 135 0 135 -325 0 -325 0 0 -135z
m310 75 l0 -50 -150 0 -150 0 0 43 c0 24 3 47 7 50 3 4 71 7 150 7 l143 0 0
-50z m320 0 l0 -50 -150 0 -150 0 0 50 0 50 150 0 150 0 0 -50z m-320 -130 l0
-71 -147 3 -148 3 -3 54 c-2 29 -1 60 2 67 4 11 37 14 151 14 l145 0 0 -70z
m320 0 l0 -70 -150 0 -150 0 0 70 0 70 150 0 150 0 0 -70z"/>
<path d="M3340 1090 c-11 -11 -20 -29 -20 -40 0 -27 35 -60 64 -60 25 0 66 41
66 66 0 23 -38 54 -65 54 -14 0 -34 -9 -45 -20z m63 3 c4 -3 2 -12 -4 -20 -9
-10 -15 -10 -25 -2 -8 6 -11 15 -8 20 6 11 28 12 37 2z m23 -61 c-4 -3 -11 -1
-18 6 -8 8 -8 15 3 28 13 16 14 16 17 -5 2 -13 1 -25 -2 -29z m-61 18 c0 -7
-6 -15 -12 -17 -8 -3 -13 4 -13 17 0 13 5 20 13 18 6 -3 12 -11 12 -18z m31
-42 c-23 -13 -40 0 -25 18 9 11 15 12 26 2 12 -10 12 -13 -1 -20z"/>
<path d="M3514 1778 c-5 -8 -2 -9 10 -5 26 10 31 -21 7 -47 -29 -30 -27 -36
12 -35 17 1 24 3 15 6 -22 5 -22 8 -3 37 9 13 13 31 9 40 -7 19 -39 22 -50 4z"/>
<path d="M3817 1773 c-2 -4 -2 -25 0 -45 4 -26 10 -38 21 -38 12 0 13 3 4 12
-15 15 -16 45 -1 50 7 2 6 8 -4 16 -8 7 -17 9 -20 5z"/>
<path d="M3637 1762 c-13 -3 -17 -13 -16 -40 1 -36 1 -36 8 -7 3 17 13 30 21
30 9 0 17 -12 19 -30 l4 -30 6 29 c8 42 29 44 34 4 4 -29 4 -28 3 6 -1 37 -3
39 -32 40 -17 1 -38 0 -47 -2z"/>
<path d="M3756 1757 c-11 -8 -17 -23 -14 -38 2 -19 9 -24 33 -26 18 -1 22 1
10 4 -34 9 -41 23 -12 23 29 0 36 20 14 39 -10 8 -18 7 -31 -2z m34 -17 c0 -5
-9 -10 -20 -10 -11 0 -20 5 -20 10 0 6 9 10 20 10 11 0 20 -4 20 -10z"/>
<path d="M3878 1759 c-22 -13 -23 -55 -2 -63 32 -12 48 -5 19 9 l-30 13 33 1
c17 1 32 5 32 10 0 8 -28 42 -33 41 -1 0 -10 -5 -19 -11z m32 -19 c0 -5 -9
-10 -21 -10 -11 0 -17 5 -14 10 3 6 13 10 21 10 8 0 14 -4 14 -10z"/>
<path d="M3941 1723 c1 -27 3 -31 6 -13 2 14 12 31 21 38 14 11 13 12 -6 12
-19 0 -22 -5 -21 -37z"/>
<path d="M3512 1558 c3 -29 7 -33 36 -36 31 -3 32 -2 32 32 0 42 -17 49 -22 9
-4 -39 -28 -42 -28 -4 0 17 -5 31 -11 31 -6 0 -9 -14 -7 -32z"/>
<path d="M3590 1546 c0 -25 5 -48 10 -51 6 -3 10 1 10 9 0 9 9 16 20 16 10 0
24 9 30 21 15 27 -3 49 -41 49 -28 0 -29 -2 -29 -44z m57 18 c8 -21 -13 -42
-28 -27 -13 13 -5 43 11 43 6 0 13 -7 17 -16z"/>
<path d="M932 3260 c-54 -13 -112 -58 -133 -103 -58 -128 22 -256 165 -265 76
-5 130 19 172 74 52 68 41 190 -22 245 -48 42 -125 63 -182 49z m115 -25 c48
-20 71 -41 95 -89 56 -110 -35 -245 -166 -246 -117 0 -211 119 -177 223 34
103 147 154 248 112z"/>
<path d="M610 1642 c0 -5 7 -9 16 -8 27 2 27 -19 -1 -53 l-27 -31 34 1 c18 1
25 3 16 6 -22 6 -23 17 -3 33 23 19 15 54 -12 58 -13 2 -23 -1 -23 -6z"/>
<path d="M720 1641 c0 -5 -3 -16 -6 -25 -4 -12 0 -16 16 -16 15 0 20 -5 18
-17 -2 -10 -11 -17 -21 -17 -9 1 -17 -2 -17 -7 0 -15 37 -10 50 6 15 18 6 45
-15 45 -24 0 -18 28 8 33 19 4 18 4 -5 6 -16 0 -28 -3 -28 -8z"/>
<path d="M824 1626 c-3 -13 -4 -37 -2 -52 l4 -29 10 35 11 35 7 -32 c7 -32 26
-46 26 -20 0 7 7 22 16 33 10 12 14 14 11 4 -2 -8 -1 -24 4 -35 5 -14 8 -4 8
33 1 58 -14 69 -32 22 -6 -16 -15 -30 -18 -30 -4 0 -10 14 -14 30 -8 36 -22
39 -31 6z"/>
<path d="M1016 1632 c-9 -14 10 -76 24 -80 12 -4 13 -2 3 9 -15 16 -17 49 -3
49 6 0 10 4 10 9 0 12 -28 22 -34 13z"/>
<path d="M944 1609 c-22 -25 -9 -53 27 -56 l24 -3 -25 12 -25 12 28 4 c29 4
35 20 15 40 -16 16 -22 15 -44 -9z m36 -9 c0 -5 -7 -10 -15 -10 -8 0 -15 5
-15 10 0 6 7 10 15 10 8 0 15 -4 15 -10z"/>
<path d="M1072 1618 c-17 -17 -15 -55 4 -62 28 -11 40 -5 14 7 l-25 11 28 4
c15 2 27 9 27 16 0 12 -19 36 -30 36 -3 0 -11 -5 -18 -12z m38 -18 c0 -5 -9
-10 -20 -10 -11 0 -20 5 -20 10 0 6 9 10 20 10 11 0 20 -4 20 -10z"/>
<path d="M1140 1583 c0 -39 8 -40 15 -3 3 13 10 27 17 32 9 5 6 8 -9 8 -20 0
-23 -5 -23 -37z"/>
<path d="M680 1559 c0 -5 5 -7 10 -4 6 3 10 8 10 11 0 2 -4 4 -10 4 -5 0 -10
-5 -10 -11z"/>
<path d="M611 1428 c-1 -36 1 -38 29 -38 28 0 30 3 30 35 0 19 -4 35 -10 35
-5 0 -10 -14 -10 -31 0 -39 -22 -34 -31 7 -6 27 -7 27 -8 -8z"/>
<path d="M691 1408 c1 -29 3 -45 6 -35 3 10 14 17 29 17 17 0 25 7 30 24 8 34
-2 46 -37 46 -29 0 -29 -1 -28 -52z m46 31 c14 -14 6 -39 -12 -39 -18 0 -28
17 -21 35 6 18 18 19 33 4z"/>
<path d="M6240 6945 c-20 -24 -8 -50 25 -52 20 -1 23 0 8 4 -31 6 -29 23 3 23
20 0 25 4 20 16 -3 9 -6 18 -6 20 0 10 -39 2 -50 -11z m45 -5 c3 -5 -3 -10
-15 -10 -12 0 -18 5 -15 10 3 6 10 10 15 10 5 0 12 -4 15 -10z"/>
<path d="M6360 6940 c-15 -28 3 -51 39 -49 l26 2 -27 4 c-35 5 -37 23 -2 23
19 0 25 5 22 18 -5 26 -44 27 -58 2z m45 0 c3 -5 -3 -10 -15 -10 -12 0 -18 5
-15 10 3 6 10 10 15 10 5 0 12 -4 15 -10z"/>
<path d="M6432 6925 c-1 -19 3 -35 8 -35 6 0 10 10 10 23 0 13 5 28 12 35 9 9
7 12 -8 12 -17 0 -21 -7 -22 -35z"/>
<path d="M6614 6946 c-11 -28 1 -51 28 -54 31 -4 48 29 28 53 -16 19 -49 19
-56 1z m44 -24 c2 -14 -2 -22 -12 -22 -19 0 -29 17 -22 36 8 22 30 12 34 -14z"/>
<path d="M6696 6933 c13 -52 23 -56 42 -16 14 32 15 43 3 43 -5 0 -12 -10 -15
-22 l-7 -23 -9 23 c-13 31 -22 28 -14 -5z"/>
<path d="M6775 6943 c-4 -13 -11 -20 -16 -17 -5 3 -9 -4 -9 -15 0 -12 5 -21
10 -21 13 0 32 49 26 64 -3 6 -8 1 -11 -11z"/>
<path d="M6800 6925 c0 -41 17 -47 22 -7 4 33 22 32 26 -3 4 -29 22 -34 22 -6
0 37 -12 51 -41 51 -26 0 -29 -3 -29 -35z"/>
<path d="M5230 5812 c0 -5 7 -9 16 -8 27 2 27 -19 -1 -53 l-27 -31 34 1 c18 1
25 3 16 6 -22 6 -23 17 -3 33 23 19 15 54 -12 58 -13 2 -23 -1 -23 -6z"/>
<path d="M5331 5768 c1 -29 4 -41 6 -25 2 15 8 27 13 27 5 0 13 -12 18 -27
l10 -28 15 35 15 35 10 -35 c10 -35 10 -35 11 18 1 58 -14 69 -32 22 -6 -16
-15 -30 -18 -30 -4 0 -10 14 -14 30 -4 17 -13 30 -21 30 -10 0 -14 -13 -13
-52z"/>
<path d="M5528 5798 c-6 -19 5 -71 17 -75 6 -2 10 15 10 39 0 40 -18 63 -27
36z"/>
<path d="M5467 5789 c-27 -16 -22 -57 8 -65 14 -4 29 -4 32 0 4 3 -3 6 -15 6
-12 0 -22 5 -22 10 0 6 9 10 20 10 22 0 27 22 7 38 -8 7 -18 7 -30 1z m33 -19
c0 -5 -7 -10 -15 -10 -8 0 -15 5 -15 10 0 6 7 10 15 10 8 0 15 -4 15 -10z"/>
<path d="M5585 5784 c-28 -28 -11 -65 30 -63 18 0 17 2 -5 11 -25 11 -25 11
-2 15 13 3 22 12 22 23 0 24 -26 33 -45 14z m35 -14 c0 -5 -7 -10 -15 -10 -8
0 -15 5 -15 10 0 6 7 10 15 10 8 0 15 -4 15 -10z"/>
<path d="M5651 5753 c1 -28 3 -31 6 -13 3 14 10 31 15 38 8 9 6 12 -6 12 -12
0 -16 -9 -15 -37z"/>
<path d="M1205 5710 c-3 -5 -1 -10 4 -10 6 0 11 -18 11 -40 0 -22 5 -40 10
-40 6 0 10 23 10 50 0 37 -4 50 -14 50 -8 0 -18 -4 -21 -10z"/>
<path d="M1307 5699 c-4 -15 0 -23 14 -26 26 -7 20 -39 -6 -35 -16 3 -18 1 -7
-9 9 -10 17 -11 30 -3 26 17 27 44 3 51 -28 7 -27 30 2 36 20 4 19 4 -4 6 -19
1 -28 -5 -32 -20z"/>
<path d="M1416 5698 c-9 -36 -7 -80 4 -73 6 3 10 18 10 33 1 26 1 26 17 -8
l16 -35 10 33 c5 17 13 32 18 32 4 0 10 -15 12 -32 3 -23 4 -16 5 20 2 58 -13
69 -29 22 -6 -16 -15 -30 -19 -30 -5 0 -11 14 -15 30 -8 36 -20 39 -29 8z"/>
<path d="M1606 5702 c-8 -13 9 -75 22 -80 6 -2 12 1 12 7 0 6 -4 11 -10 11 -5
0 -10 9 -10 20 0 11 5 20 10 20 6 0 10 4 10 9 0 12 -28 22 -34 13z"/>
<path d="M1542 5688 c-17 -17 -15 -55 4 -62 30 -11 39 -5 14 9 l-25 14 28 1
c15 0 27 6 27 13 0 13 -19 37 -30 37 -3 0 -11 -5 -18 -12z m28 -18 c0 -5 -4
-10 -9 -10 -6 0 -13 5 -16 10 -3 6 1 10 9 10 9 0 16 -4 16 -10z"/>
<path d="M1662 5688 c-17 -17 -15 -55 4 -62 23 -9 34 -7 34 5 0 5 -4 8 -9 4
-5 -3 -12 -1 -16 5 -3 5 3 10 14 10 12 0 21 6 21 13 0 13 -19 37 -30 37 -3 0
-11 -5 -18 -12z m30 -20 c-9 -9 -15 -9 -24 0 -9 9 -7 12 12 12 19 0 21 -3 12
-12z"/>
<path d="M1730 5657 c0 -23 4 -36 10 -32 6 3 10 17 10 31 0 13 5 24 10 24 6 0
10 4 10 8 0 4 -9 8 -20 8 -17 0 -20 -7 -20 -39z"/>
<path d="M5230 5600 c0 -46 2 -50 24 -50 29 0 56 24 56 50 0 26 -27 50 -56 50
-22 0 -24 -4 -24 -50z m60 -4 c0 -22 -16 -36 -41 -36 -10 0 -13 63 -3 73 13
12 44 -14 44 -37z"/>
<path d="M1270 5630 c0 -5 5 -10 10 -10 6 0 10 5 10 10 0 6 -4 10 -10 10 -5 0
-10 -4 -10 -10z"/>
<path d="M5324 5606 c-11 -28 1 -51 25 -51 28 0 47 25 38 49 -8 20 -56 21 -63
2z m49 -8 c6 -19 -3 -38 -18 -38 -18 0 -28 17 -21 35 7 18 33 20 39 3z"/>
<path d="M5400 5616 c0 -14 24 -66 30 -66 4 0 11 10 14 23 l7 22 10 -24 c11
-28 24 -20 35 23 5 21 4 27 -5 22 -6 -4 -11 -15 -12 -24 0 -13 -3 -12 -11 6
-6 12 -14 22 -18 22 -4 0 -11 -10 -15 -22 l-8 -23 -4 23 c-2 12 -9 22 -14 22
-5 0 -9 -2 -9 -4z"/>
<path d="M5510 5586 c0 -20 5 -36 10 -36 6 0 10 14 10 30 0 20 5 30 15 30 10
0 15 -10 15 -30 0 -16 5 -30 11 -30 6 0 9 14 7 33 -3 28 -7 32 -35 35 -32 3
-33 2 -33 -32z"/>
<path d="M1202 5508 c-2 -43 0 -48 23 -54 15 -4 32 -1 40 6 17 14 21 90 5 90
-5 0 -10 -18 -10 -39 0 -69 -45 -63 -53 7 -3 33 -4 32 -5 -10z"/>
<path d="M2557 613 c1410 -2 3716 -2 5125 0 1410 1 257 2 -2562 2 -2819 0
-3972 -1 -2563 -2z"/>
<path d="M2437 534 c-4 -4 -7 -108 -7 -231 l0 -223 245 0 245 0 -2 228 -3 227
-236 3 c-129 1 -238 -1 -242 -4z m473 -229 l0 -215 -232 2 -233 3 -3 213 -2
212 235 0 235 0 0 -215z"/>
<path d="M2606 475 c-205 -73 -142 -366 79 -365 74 1 168 76 181 145 17 92
-20 170 -100 210 -56 28 -102 31 -160 10z m165 -26 c68 -34 104 -128 80 -202
-7 -20 -30 -51 -51 -71 -101 -91 -242 -58 -295 68 -24 58 -13 114 33 166 63
70 145 84 233 39z"/>
<path d="M300 513 c-113 -16 -190 -102 -190 -212 0 -162 171 -260 321 -183
126 64 158 214 66 318 -49 56 -127 87 -197 77z m120 -35 c24 -13 44 -26 44
-29 2 -14 -284 -280 -295 -274 -19 13 -49 88 -49 128 0 21 6 52 14 70 31 68
30 68 106 -8 38 -38 70 -65 70 -59 0 5 -29 38 -64 73 l-65 64 25 20 c54 42
147 49 214 15z m90 -80 c29 -48 34 -100 15 -157 -9 -27 -25 -57 -36 -67 -19
-17 -21 -16 -82 42 -34 32 -65 64 -69 69 -9 10 124 145 142 145 6 0 19 -14 30
-32z m-120 -184 c62 -63 64 -66 45 -80 -11 -8 -37 -19 -60 -25 -47 -13 -132 2
-166 30 -21 17 -21 17 43 79 34 34 65 62 68 62 3 0 35 -30 70 -66z"/>
<path d="M4240 305 l0 -214 230 -3 c127 -2 235 -1 240 0 6 2 10 85 10 218 l0
214 -240 0 -240 0 0 -215z m240 95 l0 -100 -115 0 -115 0 0 100 0 100 115 0
115 0 0 -100z m230 0 l0 -100 -110 0 -110 0 0 100 0 100 110 0 110 0 0 -100z
m-232 -207 l3 -93 -116 0 -115 0 0 88 c0 49 3 91 6 94 3 4 54 6 112 5 l107 -2
3 -92z m220 90 c8 -4 12 -32 12 -94 l0 -89 -110 0 -110 0 0 88 c0 49 3 91 6
95 7 7 183 6 202 0z"/>
<path d="M5565 508 c-2 -7 -3 -107 -2 -221 l2 -209 240 0 c132 0 246 1 253 1
9 1 12 52 12 221 l0 220 -250 0 c-192 0 -252 -3 -255 -12z m485 -208 l0 -210
-235 0 -235 0 0 210 0 210 235 0 235 0 0 -210z"/>
<path d="M5781 431 l-30 -59 -57 -7 c-91 -11 -92 -13 -35 -64 l52 -46 -12 -63
c-6 -35 -9 -65 -6 -68 3 -3 31 8 64 24 l58 30 55 -29 c30 -15 60 -28 66 -29 8
0 7 19 -2 66 l-12 67 49 45 c57 52 54 57 -33 67 l-59 7 -30 59 c-16 32 -31 59
-34 59 -3 0 -18 -26 -34 -59z m139 -76 c78 -11 79 -13 31 -56 l-43 -39 10 -57
c5 -32 9 -59 7 -61 -2 -2 -27 9 -56 23 l-53 27 -53 -26 c-29 -14 -55 -26 -57
-26 -1 0 2 28 7 61 l10 62 -41 34 c-49 41 -52 53 -13 53 73 0 91 10 119 66
l26 54 30 -55 c29 -51 33 -55 76 -60z"/>
<path d="M7063 425 c0 -33 2 -45 4 -27 2 18 2 45 0 60 -2 15 -4 0 -4 -33z"/>
<path d="M7483 425 c0 -33 2 -45 4 -27 2 18 2 45 0 60 -2 15 -4 0 -4 -33z"/>
<path d="M6849 454 c-11 -13 -8 -19 17 -39 l29 -24 -25 -10 c-25 -10 -25 -10
-2 -10 33 -1 40 28 13 50 -21 17 -21 46 0 34 5 -4 9 -1 9 4 0 16 -26 13 -41
-5z"/>
<path d="M7220 459 c-13 -9 -13 -10 2 -6 9 3 21 0 28 -7 8 -11 4 -21 -16 -45
l-26 -31 34 1 c18 1 25 3 16 6 -22 6 -23 17 -3 33 20 16 19 46 -1 54 -19 7
-16 8 -34 -5z"/>
<path d="M7308 463 c26 -5 27 -14 6 -54 -8 -17 -13 -33 -10 -36 5 -6 46 70 46
87 0 5 -15 9 -32 9 -24 -1 -27 -3 -10 -6z"/>
<path d="M7370 449 c-15 -27 -9 -59 13 -73 15 -9 21 -7 33 8 18 26 18 51 -2
70 -21 21 -31 20 -44 -5z m38 -33 c-2 -15 -7 -28 -13 -29 -12 -2 -19 38 -10
60 9 25 27 1 23 -31z"/>
<path d="M7630 460 c-9 -6 -10 -10 -3 -10 7 0 14 -19 16 -42 3 -41 4 -41 5 10
1 28 1 52 0 52 -2 0 -10 -5 -18 -10z"/>
<path d="M7701 461 c-8 -5 -11 -16 -8 -24 3 -8 1 -19 -5 -25 -8 -8 -8 -16 2
-27 15 -18 41 -20 57 -4 8 8 13 8 17 0 10 -16 41 -14 56 4 7 8 8 20 4 27 -5 7
-7 21 -6 31 2 9 -4 20 -12 23 -23 9 -48 -15 -41 -37 5 -13 1 -19 -10 -19 -10
0 -15 7 -13 18 3 18 -9 42 -20 42 -4 0 -13 -4 -21 -9z m29 -22 c0 -5 -4 -9
-10 -9 -5 0 -10 7 -10 16 0 8 5 12 10 9 6 -3 10 -10 10 -16z m71 -2 c-13 -13
-26 -3 -16 12 3 6 11 8 17 5 6 -4 6 -10 -1 -17z m-63 -39 c-7 -19 -38 -22 -38
-4 0 10 9 16 21 16 12 0 19 -5 17 -12z m70 0 c-3 -7 -11 -13 -18 -13 -7 0 -15
6 -17 13 -3 7 4 12 17 12 13 0 20 -5 18 -12z"/>
<path d="M7877 463 c-14 -13 -6 -41 13 -46 27 -7 25 -25 -2 -37 -23 -9 -23 -9
-2 -9 12 -1 28 6 35 15 11 14 10 19 -9 34 -27 22 -28 37 -4 43 14 4 13 5 -4 6
-11 0 -24 -2 -27 -6z"/>
<path d="M8085 460 c-3 -5 -1 -10 4 -10 6 0 11 5 11 10 0 6 -2 10 -4 10 -3 0
-8 -4 -11 -10z"/>
<path d="M6915 420 c-8 -26 11 -50 39 -49 21 0 21 0 -1 9 -13 5 -23 18 -23 29
0 12 8 21 23 24 19 4 19 4 -5 6 -19 1 -29 -5 -33 -19z"/>
<path d="M7000 431 l25 -7 -22 -12 c-31 -17 -30 -42 3 -42 23 0 25 3 22 33 -2
26 -8 32 -28 34 l-25 2 25 -8z m15 -41 c-3 -5 -10 -10 -16 -10 -5 0 -9 5 -9
10 0 6 7 10 16 10 8 0 12 -4 9 -10z"/>
<path d="M7089 424 c-17 -21 0 -48 32 -51 23 -1 23 -1 2 4 -31 6 -29 23 3 23
20 0 25 4 20 16 -3 9 -6 18 -6 20 0 11 -39 2 -51 -12z m41 -4 c0 -5 -7 -10
-15 -10 -8 0 -15 5 -15 10 0 6 7 10 15 10 8 0 15 -4 15 -10z"/>
<path d="M7509 424 c-17 -21 0 -48 32 -51 l24 -3 -25 12 -25 12 28 4 c21 2 27
8 23 19 -3 8 -6 17 -6 19 0 11 -39 2 -51 -12z m41 -4 c0 -5 -7 -10 -15 -10 -8
0 -15 5 -15 10 0 6 7 10 15 10 8 0 15 -4 15 -10z"/>
<path d="M7970 436 c0 -14 24 -66 30 -66 4 0 11 10 14 23 l7 22 10 -24 c11
-29 25 -19 34 24 l6 30 -14 -24 -15 -24 -6 21 c-9 28 -22 28 -31 0 l-8 -23 -4
23 c-2 12 -9 22 -14 22 -5 0 -9 -2 -9 -4z"/>
<path d="M8080 405 c0 -19 5 -35 10 -35 6 0 10 16 10 35 0 19 -4 35 -10 35 -5
0 -10 -16 -10 -35z"/>
<path d="M8150 405 c0 -19 5 -35 10 -35 6 0 10 14 10 31 0 39 23 34 31 -7 l6
-29 4 29 c6 41 29 46 29 7 0 -17 5 -31 10 -31 11 0 13 30 4 54 -4 12 -20 16
-55 16 l-49 0 0 -35z"/>
<path d="M8270 405 c0 -19 5 -35 10 -35 6 0 10 14 10 30 0 20 5 30 15 30 10 0
15 -10 15 -30 0 -16 5 -30 10 -30 6 0 10 14 10 30 0 17 5 30 10 30 6 0 10 -13
10 -30 0 -16 5 -30 11 -30 6 0 9 14 7 33 -3 31 -4 32 -55 35 l-53 2 0 -35z"/>
<path d="M740 315 l0 -75 43 2 c36 1 38 2 10 5 -29 4 -33 8 -33 33 0 24 5 29
28 33 l27 4 -27 2 c-23 1 -28 6 -28 26 0 21 5 25 30 25 17 0 30 5 30 10 0 6
-18 10 -40 10 l-40 0 0 -75z"/>
<path d="M1070 315 c0 -43 4 -75 10 -75 6 0 10 32 10 75 0 43 -4 75 -10 75 -6
0 -10 -32 -10 -75z"/>
<path d="M1657 383 c-4 -3 -7 -37 -7 -75 l0 -68 34 0 c32 0 66 20 66 39 0 5
-7 14 -15 21 -11 9 -13 16 -5 24 16 16 12 44 -9 56 -22 11 -54 13 -64 3z m58
-38 c0 -13 -8 -21 -22 -23 -19 -3 -23 1 -23 23 0 22 4 26 23 23 14 -2 22 -10
22 -23z m15 -63 c0 -14 -24 -32 -42 -32 -21 0 -26 46 -5 53 14 5 47 -10 47
-21z"/>
<path d="M2130 315 c0 -43 4 -75 10 -75 6 0 10 32 10 75 0 43 -4 75 -10 75 -6
0 -10 -32 -10 -75z"/>
<path d="M3654 382 c-22 -14 -30 -48 -26 -99 5 -64 22 -71 22 -9 0 26 5 46 13
49 9 4 8 8 -3 16 -13 10 -13 13 3 25 26 20 19 37 -9 18z"/>
<path d="M3713 378 c-22 -34 -31 -58 -22 -58 5 0 9 -20 9 -45 0 -25 5 -45 10
-45 6 0 10 20 10 44 0 26 5 47 13 50 10 5 10 7 0 12 -18 8 -16 34 2 34 8 0 15
5 15 10 0 14 -27 12 -37 -2z"/>
<path d="M6384 382 c-22 -14 -30 -48 -26 -99 5 -64 22 -71 22 -9 0 26 5 47 13
50 10 5 10 7 0 12 -18 8 -16 34 2 34 8 0 15 5 15 10 0 12 -11 13 -26 2z"/>
<path d="M7580 380 c0 -5 5 -10 10 -10 6 0 10 5 10 10 0 6 -4 10 -10 10 -5 0
-10 -4 -10 -10z"/>
<path d="M1340 370 c0 -5 5 -10 10 -10 6 0 10 5 10 10 0 6 -4 10 -10 10 -5 0
-10 -4 -10 -10z"/>
<path d="M3067 305 c-14 -41 -21 -75 -15 -75 5 0 12 9 15 20 4 14 14 20 35 20
21 0 31 -6 35 -20 5 -18 23 -29 23 -13 0 25 -46 143 -56 143 -7 0 -24 -34 -37
-75z m52 -2 c1 -7 -8 -13 -18 -13 -18 0 -19 3 -9 32 10 28 12 30 19 12 4 -10
8 -25 8 -31z"/>
<path d="M3520 305 l0 -75 47 0 c25 0 43 3 39 7 -4 4 -19 7 -34 8 -22 0 -27 5
-27 25 0 19 6 26 30 31 l30 7 -32 1 c-28 1 -33 5 -33 26 0 21 5 25 30 25 17 0
30 5 30 10 0 6 -18 10 -40 10 l-40 0 0 -75z"/>
<path d="M6200 305 l0 -75 47 0 c25 0 43 3 39 7 -4 4 -19 7 -34 8 -26 0 -27 2
-30 68 -4 91 -22 85 -22 -8z"/>
<path d="M6315 371 c-3 -5 -1 -12 5 -16 5 -3 10 1 10 9 0 18 -6 21 -15 7z"/>
<path d="M3971 343 c-11 -12 -11 -17 -2 -23 7 -4 12 -13 11 -21 -7 -44 1 -69
20 -69 11 0 20 5 20 10 0 6 -4 10 -10 10 -5 0 -10 16 -10 35 0 19 5 35 10 35
16 0 12 14 -8 26 -13 9 -21 8 -31 -3z"/>
<path d="M4885 348 c-12 -32 -45 -132 -45 -135 0 -13 19 2 28 22 16 34 55 34
71 -1 23 -51 23 -15 -1 55 -21 66 -42 88 -53 59z m25 -32 c0 -8 3 -21 6 -30 4
-12 0 -16 -16 -16 -16 0 -20 4 -16 16 3 9 6 22 6 30 0 8 5 14 10 14 6 0 10 -6
10 -14z"/>
<path d="M6433 349 c-11 -11 -10 -31 3 -96 3 -16 11 -23 27 -23 20 1 21 2 5
14 -23 17 -25 76 -3 76 8 0 15 5 15 10 0 6 -6 10 -14 10 -8 0 -16 5 -18 10 -2
7 -7 7 -15 -1z"/>
<path d="M901 328 c-11 -18 -14 -19 -30 -4 -26 24 -34 19 -15 -9 15 -23 15
-27 0 -50 -9 -14 -12 -25 -7 -25 6 0 15 9 22 21 l11 21 14 -21 c23 -32 37 -25
18 9 -17 28 -17 30 0 49 9 10 13 21 9 24 -5 3 -15 -3 -22 -15z"/>
<path d="M950 277 c0 -45 4 -77 10 -77 6 0 10 11 10 24 0 19 4 22 25 18 33 -6
55 14 55 49 0 34 -35 63 -60 49 -11 -6 -21 -5 -28 2 -9 9 -12 -7 -12 -65z m78
17 c2 -22 -2 -33 -14 -38 -22 -8 -44 11 -44 39 0 28 9 37 35 33 14 -2 21 -12
23 -34z"/>
<path d="M1340 296 c0 -31 4 -56 8 -56 13 0 14 97 2 105 -6 4 -10 -14 -10 -49z"/>
<path d="M1881 298 c-1 -33 3 -58 9 -58 6 0 10 16 10 36 0 23 7 42 18 51 16
13 15 14 -5 10 -12 -3 -24 0 -27 7 -2 6 -5 -15 -5 -46z"/>
<path d="M1950 296 c0 -31 5 -56 10 -56 6 0 10 15 10 34 0 25 7 40 23 51 20
15 21 16 2 13 -11 -1 -26 1 -32 5 -10 6 -13 -5 -13 -47z"/>
<path d="M2197 338 c-25 -13 -21 -37 8 -50 30 -13 27 -33 -4 -32 -11 0 -21 -3
-21 -8 0 -15 47 -8 61 8 12 14 10 19 -14 38 -33 26 -34 34 -4 38 17 2 18 5 6
10 -8 3 -23 2 -32 -4z"/>
<path d="M1132 328 c-15 -15 -15 -61 0 -76 15 -15 61 -15 76 0 7 7 12 24 12
38 0 33 -17 50 -50 50 -14 0 -31 -5 -38 -12z m66 -34 c2 -22 -2 -33 -14 -38
-22 -8 -44 11 -44 39 0 28 9 37 35 33 14 -2 21 -12 23 -34z"/>
<path d="M1253 324 c-4 -11 2 -23 17 -34 24 -18 19 -46 -6 -36 -8 3 -14 1 -14
-4 0 -6 11 -10 25 -10 35 0 44 28 17 51 -27 21 -28 36 -4 42 12 4 11 5 -6 6
-12 0 -25 -6 -29 -15z"/>
<path d="M1384 328 c2 -7 10 -30 17 -50 16 -50 32 -48 53 5 19 50 20 57 6 57
-5 0 -10 -4 -10 -9 0 -5 -5 -22 -11 -38 l-11 -28 -15 38 c-8 20 -20 37 -25 37
-5 0 -7 -6 -4 -12z"/>
<path d="M1491 314 c-17 -39 8 -74 52 -73 27 2 28 2 7 6 -58 11 -61 43 -4 43
37 0 39 2 24 31 -16 30 -64 25 -79 -7z m67 -1 c2 -8 -6 -13 -22 -13 -25 0 -33
10 -19 24 10 10 36 3 41 -11z"/>
<path d="M1793 333 c30 -5 38 -33 8 -33 -10 0 -24 -7 -31 -15 -19 -22 5 -45
45 -43 31 1 32 2 28 37 -7 56 -10 61 -45 60 -30 -2 -31 -2 -5 -6z m31 -52 c9
-15 -23 -36 -36 -23 -5 5 -7 15 -4 21 9 13 33 14 40 2z"/>
<path d="M2019 314 c-14 -38 11 -74 51 -74 17 0 30 4 30 9 0 4 -11 6 -24 4
-17 -4 -27 1 -35 16 -11 20 -9 21 29 21 43 0 45 2 30 31 -17 30 -68 26 -81 -7z
m69 -1 c2 -9 -7 -13 -28 -13 -28 0 -31 2 -20 15 15 18 41 16 48 -2z"/>
<path d="M3190 283 c0 -29 5 -53 10 -53 6 0 10 18 10 40 0 27 5 43 15 46 24 9
17 22 -10 20 -23 -1 -25 -5 -25 -53z"/>
<path d="M3267 322 c-21 -23 -22 -56 -1 -76 18 -18 64 -22 64 -5 0 6 -6 9 -12
6 -16 -5 -48 10 -48 23 0 6 16 10 35 10 28 0 35 4 35 20 0 18 -26 40 -48 40
-5 0 -16 -8 -25 -18z m51 -19 c2 -8 -6 -13 -22 -13 -25 0 -33 10 -19 24 10 10
36 3 41 -11z"/>
<path d="M3380 330 c-12 -8 -9 -10 13 -10 34 0 36 -17 2 -26 -23 -6 -43 -39
-31 -52 4 -3 22 -7 41 -8 l35 -3 0 44 c0 34 -5 47 -19 55 -24 12 -22 12 -41 0z
m40 -64 c0 -17 -27 -29 -35 -16 -4 6 -3 15 0 20 9 15 35 12 35 -4z"/>
<path d="M3767 322 c-21 -23 -22 -56 -1 -76 17 -18 64 -22 64 -5 0 5 -4 7 -10
4 -12 -7 -50 12 -50 25 0 6 16 10 35 10 28 0 35 4 35 20 0 18 -26 40 -48 40
-5 0 -16 -8 -25 -18z m53 -17 c0 -9 -9 -15 -25 -15 -24 0 -32 10 -18 23 12 13
43 7 43 -8z"/>
<path d="M3900 333 c-38 -14 -51 -60 -24 -87 18 -18 64 -22 64 -5 0 6 -6 9
-14 6 -25 -10 -50 17 -42 46 5 20 13 27 31 27 14 0 25 5 25 10 0 11 -15 12
-40 3z"/>
<path d="M4052 328 c-19 -19 -14 -34 13 -46 39 -18 31 -38 -12 -33 -7 1 -13
-3 -13 -9 0 -15 46 -12 60 5 10 12 7 19 -14 38 -31 29 -33 37 -5 37 11 0 17 5
14 10 -8 14 -28 13 -43 -2z"/>
<path d="M5273 325 c-8 -9 -9 -16 -3 -20 6 -3 10 -24 10 -46 0 -38 21 -62 38
-44 4 4 1 10 -5 12 -16 6 -17 83 -2 83 6 0 4 7 -5 15 -18 18 -18 18 -33 0z"/>
<path d="M6310 285 c0 -30 5 -55 10 -55 6 0 10 25 10 55 0 30 -4 55 -10 55 -5
0 -10 -25 -10 -55z"/>
<path d="M4989 304 c-12 -14 -10 -19 14 -38 29 -23 27 -36 -5 -36 -11 0 -16
-4 -13 -10 9 -15 32 -12 51 7 15 16 15 18 -10 40 -27 23 -28 47 -1 36 8 -3 15
0 15 6 0 17 -36 13 -51 -5z"/>
<path d="M5077 313 c-14 -13 -6 -42 13 -48 27 -9 26 -35 -2 -35 -16 0 -19 -3
-11 -11 14 -14 41 -5 50 17 4 11 -2 23 -17 34 -21 16 -21 48 1 35 5 -4 9 -1 9
4 0 12 -33 15 -43 4z"/>
<path d="M5164 295 c-13 -21 -15 -31 -6 -50 13 -28 58 -43 75 -26 8 8 4 11
-15 11 -14 0 -31 6 -37 14 -10 12 -6 15 25 18 42 3 52 18 29 42 -24 23 -52 20
-71 -9z m56 0 c11 -13 8 -15 -20 -15 -28 0 -31 2 -20 15 7 8 16 15 20 15 4 0
13 -7 20 -15z"/>
<path d="M5347 313 c-14 -13 -6 -42 13 -48 27 -9 26 -35 -2 -35 -16 0 -19 -3
-11 -11 14 -14 41 -5 50 17 4 11 -2 23 -17 34 -25 19 -20 43 7 33 11 -4 14 -3
9 5 -8 13 -39 16 -49 5z"/>
<path d="M7410 260 c0 -27 5 -50 10 -50 6 0 10 14 10 31 0 17 4 28 10 24 6 -3
10 -17 10 -31 0 -13 5 -24 10 -24 18 0 10 50 -10 62 -11 7 -20 18 -20 25 0 7
-4 13 -10 13 -5 0 -10 -22 -10 -50z"/>
<path d="M7613 255 c0 -33 2 -45 4 -27 2 17 8 32 14 32 5 0 12 0 17 0 4 1 10
-14 14 -32 6 -31 6 -31 5 7 -2 33 -6 40 -22 40 -11 0 -23 9 -27 20 -3 11 -6
-7 -5 -40z"/>
<path d="M6849 293 c0 -4 -2 -24 -5 -44 -4 -30 -1 -38 15 -42 34 -8 51 13 43
53 -6 26 -14 36 -30 38 -12 2 -22 0 -23 -5z m39 -14 c-2 -6 -8 -10 -13 -10 -5
0 -11 4 -13 10 -2 6 4 11 13 11 9 0 15 -5 13 -11z m0 -47 c2 -7 -6 -12 -17
-12 -21 0 -27 11 -14 24 9 9 26 2 31 -12z"/>
<path d="M7148 285 c-2 -3 -2 -20 0 -40 3 -25 9 -35 21 -34 10 0 11 2 4 6 -16
6 -17 35 -2 50 7 7 6 12 -4 16 -8 3 -17 4 -19 2z"/>
<path d="M6950 245 c0 -19 5 -35 10 -35 6 0 10 11 10 25 0 14 5 25 10 25 6 0
10 -11 10 -25 0 -33 18 -32 22 0 4 37 22 35 26 -3 4 -36 22 -34 22 2 0 32 -17
43 -67 45 -43 1 -43 1 -43 -34z"/>
<path d="M7083 273 c-20 -8 -15 -51 6 -63 12 -6 22 -6 26 -1 3 5 -3 12 -12 14
-13 3 -12 5 5 6 18 1 23 6 20 23 -3 23 -22 31 -45 21z m32 -13 c3 -5 -3 -10
-15 -10 -12 0 -18 5 -15 10 3 6 10 10 15 10 5 0 12 -4 15 -10z"/>
<path d="M7202 268 c-29 -29 5 -79 39 -57 11 7 9 9 -8 9 -13 0 -23 4 -23 9 0
5 8 8 18 7 11 -1 17 6 17 19 0 23 -25 31 -43 13z m33 -8 c3 -5 -1 -10 -10 -10
-9 0 -13 5 -10 10 3 6 8 10 10 10 2 0 7 -4 10 -10z"/>
<path d="M7270 243 c0 -18 5 -33 10 -33 6 0 10 11 10 24 0 34 11 36 39 9 l24
-23 -24 0 c-18 0 -20 -3 -10 -9 18 -11 41 -3 41 15 0 7 -8 18 -17 23 -14 8
-15 13 -5 19 8 6 -2 8 -28 8 -39 0 -40 -1 -40 -33z"/>
<path d="M7490 245 c0 -19 5 -35 10 -35 6 0 10 16 10 35 0 19 -4 35 -10 35 -5
0 -10 -16 -10 -35z"/>
<path d="M7532 268 c-25 -25 0 -80 29 -62 7 4 10 2 7 -7 -3 -8 -13 -13 -22
-13 -9 1 -16 -2 -16 -7 0 -13 34 -11 48 3 7 7 12 31 12 55 0 38 -3 43 -23 43
-13 0 -28 -5 -35 -12z m38 -29 c0 -20 -24 -26 -35 -9 -8 13 14 42 26 34 5 -3
9 -14 9 -25z"/>
</g>
</svg>
